<svg width="56" height="58" viewBox="0 0 56 58" fill="none" xmlns="http://www.w3.org/2000/svg">
<path d="M55.8475 18.5924L51.058 37.4927C50.688 38.9391 49.9489 40.2566 48.9179 41.3082L44.5823 45.7502C43.7272 46.6303 43.0844 47.7053 42.7057 48.8886L33.5867 46.0475L35.5921 39.1885C35.7066 38.8046 35.9158 38.4579 36.1991 38.1824C36.2206 38.1624 36.2432 38.1436 36.2666 38.126L39.0936 35.3735C40.0686 34.4308 42.1124 31.5477 43.6672 32.4069C43.8736 32.5247 44.0502 32.6911 44.1827 32.8925C44.3152 33.0939 44.3999 33.3247 44.4298 33.5661C44.4598 33.8075 44.4343 34.0529 44.3553 34.2822C44.2763 34.5116 44.1461 34.7185 43.9751 34.8863L39.4433 39.2834C38.5869 40.1143 39.8378 41.5221 40.7003 40.6628L45.2323 36.2713C45.6444 35.8729 45.9517 35.373 46.1255 34.8186C46.2993 34.2641 46.3338 33.6732 46.2257 33.1013L53.4068 17.6684C53.5433 17.3775 53.776 17.1464 54.063 17.0167C54.3451 16.8871 54.6631 16.8671 54.9584 16.9603C55.2833 17.0594 55.558 17.2854 55.724 17.5901C55.89 17.8949 55.9343 18.2544 55.8475 18.5924ZM43.4318 51.8241L31.2124 48.0173C30.9076 47.9224 30.5788 47.9563 30.2982 48.1115C30.0176 48.2668 29.8083 48.5306 29.7162 48.8451L29.1922 50.6377C29.1467 50.7934 29.1313 50.9568 29.1469 51.1186C29.1626 51.2805 29.209 51.4375 29.2834 51.5809C29.3579 51.7242 29.4591 51.851 29.581 51.954C29.703 52.0571 29.8435 52.1343 29.9944 52.1813L42.2136 55.9881C42.3646 56.0351 42.523 56.051 42.6798 56.0348C42.8367 56.0187 42.9889 55.9708 43.1278 55.894C43.2668 55.8171 43.3897 55.7128 43.4895 55.5869C43.5894 55.461 43.6642 55.3161 43.7098 55.1604L44.2348 53.3673C44.3266 53.0527 44.2936 52.7135 44.143 52.4241C43.9924 52.1347 43.7366 51.9189 43.4318 51.8241ZM22.4134 46.0475L20.4081 39.1822C20.2919 38.8008 20.0829 38.4566 19.801 38.1824C19.801 38.1824 19.752 38.1382 19.7397 38.126L14.0794 32.6337C12.7328 31.327 10.5668 33.4914 12.0188 34.8795L16.5569 39.2834C16.6457 39.3682 16.7173 39.4703 16.7676 39.5839C16.8179 39.6974 16.8458 39.8201 16.8498 39.9449C16.8538 40.0697 16.8337 40.194 16.7908 40.3108C16.7479 40.4275 16.683 40.5343 16.5998 40.6249C15.677 41.6437 14.1177 39.5175 13.508 38.9267L10.7678 36.2713C10.3545 35.8738 10.0463 35.374 9.87252 34.8193C9.6987 34.2645 9.66494 33.6732 9.77444 33.1013L2.59332 17.6687C2.45966 17.3816 2.23145 17.1528 1.94943 17.0233C1.77753 16.9446 1.59168 16.9037 1.40365 16.903C1.27887 16.902 1.15471 16.9212 1.03571 16.96C0.712087 17.0607 0.439102 17.2874 0.274421 17.592C0.10974 17.8966 0.0662595 18.2553 0.153163 18.5924L4.94204 37.4927C5.31343 38.9404 6.05223 40.2596 7.08229 41.3145L11.4179 45.7497C12.275 46.6282 12.918 47.7037 13.2945 48.8882L22.4134 46.0475ZM26.2853 48.8451C26.1932 48.5306 25.9839 48.2667 25.7033 48.1115C25.4228 47.9563 25.0939 47.9224 24.7891 48.0173L12.5694 51.8241C12.2647 51.9191 12.009 52.135 11.8586 52.4245C11.7081 52.714 11.6753 53.0533 11.7673 53.3677L12.2923 55.1608C12.3378 55.3166 12.4127 55.4615 12.5125 55.5873C12.6124 55.7132 12.7353 55.8175 12.8742 55.8944C13.0131 55.9713 13.1654 56.0191 13.3222 56.0353C13.4791 56.0514 13.6375 56.0355 13.7884 55.9885L26.0077 52.1817C26.1586 52.1347 26.299 52.0575 26.421 51.9545C26.543 51.8515 26.6441 51.7247 26.7186 51.5813C26.7931 51.438 26.8395 51.2809 26.8551 51.1191C26.8708 50.9572 26.8554 50.7938 26.8098 50.6381L26.2853 48.8451ZM18.8563 27.9314H21.812C21.5787 27.0886 21.5676 26.1967 21.78 25.348C21.9924 24.4993 22.4205 23.7244 23.0202 23.1035C23.4596 22.6415 23.9847 22.2756 24.5643 22.0278C25.1438 21.7799 25.7658 21.6551 26.3931 21.6609C27.2238 21.6607 28.04 21.8855 28.7602 22.3126C29.669 21.7759 30.7235 21.5619 31.7617 21.7036C32.7998 21.8454 33.7641 22.335 34.5063 23.0972C35.0979 23.7247 35.5197 24.5013 35.7296 25.3496C35.9395 26.1978 35.9301 27.0881 35.7024 27.9314H38.6522C39.1654 27.9301 39.671 27.8037 40.1279 27.5625C40.5847 27.3213 40.9799 26.9721 41.2812 26.5434C41.5824 26.1148 41.7813 25.6187 41.8615 25.0957C41.9418 24.5727 41.9011 24.0375 41.7429 23.5338C41.1758 21.7539 40.271 20.1082 39.0813 18.6927C37.8916 17.2772 36.4407 16.1201 34.8132 15.289C34.617 15.4915 34.4085 15.6813 34.1938 15.8646C32.6594 17.1588 30.7382 17.8653 28.7563 17.8641C26.7744 17.863 24.854 17.1543 23.321 15.8583C23.1064 15.6748 22.9039 15.4849 22.7077 15.2827C21.0784 16.1138 19.6259 17.2716 18.435 18.6883C17.2442 20.1051 16.3389 21.7525 15.7719 23.5343C15.6131 24.0375 15.5718 24.5722 15.6514 25.095C15.731 25.6178 15.9293 26.1138 16.23 26.5424C16.5307 26.9711 16.9253 27.3204 17.3817 27.5618C17.8382 27.8032 18.3434 27.9298 18.8563 27.9314ZM24.3259 14.5869C25.5598 15.6267 27.0998 16.2024 28.6929 16.2193C30.2859 16.2362 31.8371 15.6932 33.0914 14.6797C34.3456 13.6662 35.2283 12.2425 35.5943 10.6426C35.9603 9.04279 35.7877 7.36208 35.1051 5.87685C34.4224 4.39162 33.2702 3.19029 31.838 2.47039C30.4058 1.7505 28.7787 1.5549 27.2245 1.91576C25.6702 2.27661 24.2812 3.17244 23.2859 4.45594C22.2906 5.73944 21.7481 7.3342 21.7478 8.978C21.7451 10.0522 21.9752 11.1134 22.4213 12.084C22.8674 13.0545 23.5183 13.9099 24.3262 14.5873L24.3259 14.5869ZM34.0082 27.9291C34.2735 27.3239 34.3552 26.65 34.2427 25.996C34.1302 25.3419 33.8286 24.7383 33.3777 24.2642C33.0833 23.9603 32.7335 23.7195 32.3486 23.5556C31.9637 23.3916 31.5512 23.3078 31.1347 23.3089C30.2027 23.3089 29.4031 23.7367 28.7561 24.4043C28.7914 24.3671 28.0518 23.8038 27.979 23.7582C27.5 23.4621 26.9516 23.3067 26.3931 23.3089C25.9762 23.3047 25.5628 23.3872 25.1775 23.5513C24.7922 23.7154 24.4428 23.9579 24.1501 24.2642C23.6931 24.7343 23.3867 25.3378 23.2726 25.9932C23.1584 26.6487 23.2419 27.3244 23.5117 27.9294C23.9237 28.8548 24.9743 29.699 25.6416 30.4205C26.6524 31.5133 27.6783 32.5919 28.736 33.6369C29.7275 32.6437 30.6829 31.6101 31.6832 30.6261C32.5226 29.8002 33.5215 29.0506 34.0082 27.9291Z" fill="#C19932"/>
</svg>
