<svg width="13" height="12" viewBox="0 0 13 12" fill="none" xmlns="http://www.w3.org/2000/svg">
<path d="M12.9425 8.76979C12.8586 8.64156 12.3008 8.37032 12.3008 8.37032C12.0786 8.26183 10.4448 7.46291 10.1388 7.34948C9.87714 7.25578 9.57604 7.14728 9.30949 7.54674C9.10711 7.84757 8.51478 8.538 8.31734 8.75499C8.18406 8.90787 8.05572 8.95719 7.75462 8.80924C7.70526 8.78458 6.24911 8.1632 5.24708 7.2755C4.35858 6.49137 3.74157 5.51984 3.51451 5.14011C3.3763 4.90832 3.46515 4.79983 3.63791 4.62722C3.74157 4.52366 4.20556 3.96638 4.24011 3.91707C4.31415 3.80364 4.44249 3.53733 4.44249 3.53733C4.57577 3.27596 4.49185 3.0491 4.41781 2.89622C4.36352 2.79266 3.52931 0.775621 3.4454 0.58822C3.20847 0.0210827 2.95179 -0.00850736 2.70992 0.00135589C2.59145 0.0112191 1.48083 0.016151 1.13037 0.400818L1.0662 0.464929C0.720671 0.829869 0 1.59427 0 3.06883C0 3.40911 0.0542972 3.76419 0.167828 4.15872C0.375144 4.86887 0.774969 5.64807 1.30807 6.35822C1.31794 6.37302 2.1324 7.49743 2.53716 7.96593C3.82054 9.44049 5.26682 10.5304 6.72791 11.1024C8.59376 11.8323 9.39341 12 9.84753 12C10.045 12 10.4645 11.9014 10.5534 11.8915C11.126 11.8422 12.4785 11.137 12.7648 10.343C13.0363 9.59337 13.0412 8.93746 12.9375 8.76979H12.9425Z" fill="white"/>
</svg>
