<svg width="56" height="56" viewBox="0 0 56 56" fill="none" xmlns="http://www.w3.org/2000/svg">
<path d="M32.4995 33.9995C36.8752 33.9995 41.0728 32.2613 44.1665 29.1666C47.2613 26.0729 48.9995 21.8754 48.9995 17.4998C48.9995 13.1241 47.2613 8.92664 44.1665 5.8329C41.0728 2.73819 36.8752 1 32.4995 1C28.1238 1 23.9263 2.73819 20.8325 5.83217C17.7377 8.92689 15.9995 13.1234 15.9995 17.5C16.0043 21.8747 17.7444 26.0682 20.8374 29.1622C23.9304 32.2552 28.1248 33.9951 32.4998 34L32.4995 33.9995ZM29.861 10.7932H26.3308C25.4411 10.7932 24.7201 10.0722 24.7201 9.1825C24.7201 8.2928 25.4411 7.57182 26.3308 7.57182H38.6682C39.5579 7.57182 40.2789 8.2928 40.2789 9.1825C40.2789 10.0722 39.5579 10.7932 38.6682 10.7932H35.6961C36.1276 11.4442 36.4258 12.1738 36.5734 12.9408H38.6673C39.557 12.9408 40.278 13.6617 40.278 14.5514C40.278 15.4412 39.557 16.1621 38.6673 16.1621H36.5734C36.1947 17.5619 35.396 18.8111 34.2848 19.744C33.1746 20.6759 31.8047 21.2445 30.3607 21.3748L36.2589 26.8866H36.2599C36.5753 27.179 36.7613 27.5846 36.7757 28.0151C36.7901 28.4446 36.6309 28.8626 36.3356 29.1742C36.0394 29.4867 35.6309 29.667 35.2005 29.6756C34.7709 29.6842 34.3549 29.5203 34.0471 29.2192L25.2237 20.8734C24.7463 20.4113 24.5919 19.7076 24.8345 19.0892C25.0761 18.4699 25.6667 18.0566 26.3311 18.0413H29.8613C31.2199 18.0499 32.4797 17.3338 33.1671 16.1622H26.3311C25.4414 16.1622 24.7204 15.4412 24.7204 14.5515C24.7204 13.6618 25.4414 12.9408 26.3311 12.9408H33.1671C32.8901 12.2966 32.4279 11.7491 31.8393 11.3666C31.2515 10.985 30.5632 10.7846 29.8613 10.7933L29.861 10.7932Z" fill="#C19932"/>
<path d="M6.21469 39.8646H2.47607C1.57055 39.8646 0.836426 40.5987 0.836426 41.5043V54.358C0.836426 55.2635 1.57055 55.9977 2.47607 55.9977H6.2148L6.21469 39.8646Z" fill="#C19932"/>
<path d="M54.6824 39.7503C51.6092 36.677 46.6086 36.6769 43.5356 39.7503L38.6239 44.6619L36.6107 46.675C35.7971 47.4886 34.6935 47.9458 33.5429 47.9458H23.7538C22.8697 47.9458 22.1089 47.2663 22.0672 46.3832C22.0229 45.4403 22.7741 44.6619 23.7073 44.6619H33.6574C35.658 44.6619 37.3931 43.2376 37.737 41.2668C37.8161 40.8143 37.8573 40.349 37.8573 39.8741C37.8574 38.9669 37.1224 38.2309 36.2153 38.2309H30.7633C28.9815 38.2309 27.2705 37.4226 25.4589 36.5667C23.5588 35.6692 21.594 34.741 19.2967 34.5882C17.2873 34.4543 15.2734 34.6743 13.3105 35.2411C11.2088 35.848 9.69806 37.7152 9.51486 39.8711C9.50786 39.8705 9.50076 39.8704 9.49365 39.87V55.9922L37.7423 55.9999C39.6845 55.9999 41.5106 55.2435 42.8842 53.87L54.682 42.0722C55.3236 41.4312 55.3236 40.3915 54.6824 39.7503Z" fill="#C19932"/>
</svg>
