<svg width="52" height="54" viewBox="0 0 52 54" fill="none" xmlns="http://www.w3.org/2000/svg">
<path d="M24.7661 20.876L25.768 24.1821H26.2317L27.2336 20.876L26.3219 13.3481H25.6779L24.7661 20.876Z" fill="#C19932"/>
<path d="M26 11.5425C28.8995 11.5425 31.25 9.11722 31.25 6.12549C31.25 3.13377 28.8995 0.708496 26 0.708496C23.1005 0.708496 20.75 3.13377 20.75 6.12549C20.75 9.11722 23.1005 11.5425 26 11.5425Z" fill="#C19932"/>
<path d="M11.125 11.5425C13.5412 11.5425 15.5 9.52143 15.5 7.02833C15.5 4.53522 13.5412 2.51416 11.125 2.51416C8.70875 2.51416 6.75 4.53522 6.75 7.02833C6.75 9.52143 8.70875 11.5425 11.125 11.5425Z" fill="#C19932"/>
<path d="M5 18.7652H6.75V24.1822H13.75V23.2793C13.75 20.2548 14.8744 17.503 16.7014 15.4202C16.0469 14.8595 15.3241 14.4072 14.5541 14.0695C14.2295 15.7163 12.8164 16.9595 11.125 16.9595C9.43538 16.9595 8.02138 15.7181 7.69588 14.0722C4.57125 15.4509 2.375 18.6541 2.375 22.3765V24.1822H5V18.7652Z" fill="#C19932"/>
<path d="M9.39258 13.5278C9.48095 14.4379 10.2195 15.1538 11.1251 15.1538C12.0316 15.1538 12.7701 14.4361 12.8576 13.5242C12.2932 13.4077 11.714 13.3481 11.1251 13.3481C10.5318 13.3481 9.95258 13.4104 9.39258 13.5278Z" fill="#C19932"/>
<path d="M23.9042 13.4376C23.4571 13.4962 23.0213 13.5883 22.5952 13.7084L23.507 16.7176L23.9042 13.4376Z" fill="#C19932"/>
<path d="M40.875 11.5425C43.2912 11.5425 45.25 9.52143 45.25 7.02833C45.25 4.53522 43.2912 2.51416 40.875 2.51416C38.4588 2.51416 36.5 4.53522 36.5 7.02833C36.5 9.52143 38.4588 11.5425 40.875 11.5425Z" fill="#C19932"/>
<path d="M28.0957 13.4376L28.493 16.7167L29.4038 13.7084C28.9786 13.5874 28.5428 13.4962 28.0957 13.4376Z" fill="#C19932"/>
<path d="M40.615 13.3617L40.0366 19.3321L40.8749 20.197L41.7131 19.3321L41.1347 13.3617C41.0472 13.359 40.9624 13.3481 40.8749 13.3481C40.7874 13.3481 40.7016 13.359 40.615 13.3617Z" fill="#C19932"/>
<path d="M38.2501 24.1821H45.2501V18.7651H47.0001V24.1821H49.6251V22.3765C49.6251 18.125 46.7586 14.5597 42.9174 13.6064L43.5369 20.0038L40.8751 22.7502L38.2134 20.0038L38.8329 13.6046C37.5396 13.9224 36.3339 14.5327 35.2979 15.4201C37.1257 17.503 38.2501 20.2548 38.2501 23.2793V24.1821Z" fill="#C19932"/>
<path d="M28.0649 24.1821H32.1249V18.7651H33.8749V24.1821H36.4999V23.2793C36.4999 19.3457 34.2669 15.9492 31.0443 14.3422L28.0649 24.1821Z" fill="#C19932"/>
<path d="M15.5 24.1821H18.125V18.7651H19.875V24.1821H23.935L20.9547 14.3422C17.733 15.9501 15.5 19.3457 15.5 23.2793V24.1821Z" fill="#C19932"/>
<path d="M46.1249 37.6434V33.2105H41.8286C42.1996 35.4739 43.9312 37.2606 46.1249 37.6434Z" fill="#C19932"/>
<path d="M40.0605 33.2105H31.5161C33.9967 35.009 35.6251 37.9775 35.6251 41.336C35.6251 44.6945 33.9967 47.6631 31.517 49.4615H40.0614C40.4577 46.2005 42.9655 43.6139 46.126 43.204V39.4671C42.9646 39.0582 40.4577 36.4715 40.0605 33.2105Z" fill="#C19932"/>
<path d="M2.375 53.0728H49.625V29.5991H2.375V53.0728ZM4.125 31.4048H47.875V51.2671H4.125V31.4048Z" fill="#C19932"/>
<path d="M10.1712 33.2105H5.875V37.6434C8.06862 37.2606 9.80025 35.4739 10.1712 33.2105Z" fill="#C19932"/>
<path d="M41.8286 49.4615H46.1249V45.0286C43.9312 45.4114 42.1996 47.1981 41.8286 49.4615Z" fill="#C19932"/>
<path d="M0.625 25.9878H51.375V27.7935H0.625V25.9878Z" fill="#C19932"/>
<path d="M16.3749 41.336C16.3749 37.9775 18.0033 35.009 20.483 33.2105H11.9386C11.5423 36.4715 9.03452 39.0582 5.87402 39.468V43.2049C9.03452 43.6139 11.5414 46.2014 11.9386 49.4624H20.483C18.0033 47.6631 16.3749 44.6945 16.3749 41.336Z" fill="#C19932"/>
<path d="M26 49.3098C28.1216 49.3098 30.1567 48.467 31.6567 46.9665C33.1572 45.4665 34 43.4314 34 41.3099C34 39.1884 33.1572 37.1532 31.6567 35.6532C30.1567 34.1528 28.1216 33.31 26 33.31C23.8784 33.31 21.8433 34.1528 20.3433 35.6529C18.8428 37.1533 18 39.188 18 41.31C18.0023 43.4311 18.846 45.4643 20.3456 46.9644C21.8453 48.464 23.8789 49.3076 26.0001 49.31L26 49.3098ZM24.7207 38.0582H23.0091C22.5778 38.0582 22.2282 37.7086 22.2282 37.2773C22.2282 36.8459 22.5778 36.4963 23.0091 36.4963H28.9909C29.4222 36.4963 29.7718 36.8459 29.7718 37.2773C29.7718 37.7086 29.4222 38.0582 28.9909 38.0582H27.5499C27.7591 38.3738 27.9036 38.7276 27.9752 39.0995H28.9904C29.4218 39.0995 29.7714 39.449 29.7714 39.8804C29.7714 40.3118 29.4218 40.6613 28.9904 40.6613H27.9752C27.7916 41.34 27.4044 41.9457 26.8656 42.398C26.3273 42.8498 25.6631 43.1255 24.963 43.1887L27.8227 45.8611H27.8232C27.9762 46.0029 28.0663 46.1995 28.0733 46.4082C28.0803 46.6165 28.0031 46.8191 27.8599 46.9702C27.7163 47.1217 27.5183 47.2091 27.3096 47.2133C27.1013 47.2175 26.8996 47.138 26.7503 46.9921L22.4724 42.9456C22.2409 42.7215 22.166 42.3803 22.2836 42.0805C22.4008 41.7802 22.6871 41.5799 23.0093 41.5725H24.7209C25.3796 41.5766 25.9904 41.2294 26.3237 40.6614H23.0093C22.5779 40.6614 22.2283 40.3118 22.2283 39.8804C22.2283 39.4491 22.5779 39.0995 23.0093 39.0995H26.3237C26.1894 38.7871 25.9653 38.5217 25.6799 38.3362C25.3949 38.1512 25.0612 38.0541 24.7209 38.0582L24.7207 38.0582Z" fill="#C19932"/>
<path d="M5.875 45.0286V49.4615H10.1712C9.80025 47.1981 8.06862 45.4114 5.875 45.0286Z" fill="#C19932"/>
</svg>
