<svg width="85" height="111" viewBox="0 0 85 111" fill="none" xmlns="http://www.w3.org/2000/svg">
<path fill-rule="evenodd" clip-rule="evenodd" d="M84.2747 0H0V4.90981H84.2747V0ZM5.96036 8.0968V51.3711H78.3139V8.0968H5.96036ZM23.515 43.0667C23.515 43.9519 22.7975 44.6687 21.9123 44.6687H12.8513C11.973 44.6594 11.2662 43.945 11.2662 43.0667V34.6948C11.2662 33.8165 11.973 33.102 12.8513 33.092H21.9123C22.7975 33.092 23.515 33.8096 23.515 34.6948V43.0667ZM23.515 24.7891C23.515 25.6735 22.7975 26.3911 21.9123 26.3911H12.8513C11.973 26.3818 11.2662 25.6666 11.2662 24.7891V16.3994C11.2662 15.5212 11.973 14.8067 12.8513 14.7975H21.9123C22.7975 14.7975 23.515 15.5143 23.515 16.3994V24.7891ZM40.0183 43.0667C40.0183 43.9519 39.3008 44.6687 38.4164 44.6687H29.3545C28.4701 44.6687 27.7526 43.9519 27.7526 43.0667V34.6948C27.7526 33.8096 28.4701 33.092 29.3545 33.092H38.4164C39.3008 33.092 40.0183 33.8096 40.0183 34.6948V43.0667ZM40.0183 24.7891C40.0183 25.6735 39.3008 26.3911 38.4164 26.3911H29.3545C28.4701 26.3911 27.7526 25.6735 27.7526 24.7891V16.3994C27.7526 15.5143 28.4701 14.7975 29.3545 14.7975H38.4164C39.3008 14.7975 40.0183 15.5143 40.0183 16.3994V24.7891ZM56.5216 43.0667C56.5216 43.9519 55.8041 44.6687 54.9197 44.6687H45.8579C44.9734 44.6687 44.2559 43.9519 44.2559 43.0667V34.6948C44.2559 33.8096 44.9734 33.092 45.8579 33.092H54.9197C55.8041 33.092 56.5216 33.8096 56.5216 34.6948V43.0667ZM56.5216 24.7891C56.5216 25.6735 55.8041 26.3911 54.9197 26.3911H45.8579C44.9734 26.3911 44.2559 25.6735 44.2559 24.7891V16.3994C44.2559 15.5143 44.9734 14.7975 45.8579 14.7975H54.9197C55.8041 14.7975 56.5216 15.5143 56.5216 16.3994V24.7891ZM73.0249 43.0667C73.0249 43.9519 72.3082 44.6687 71.423 44.6687H62.362C61.4768 44.6687 60.7592 43.9519 60.7592 43.0667V34.6948C60.7592 33.8096 61.4768 33.092 62.362 33.092H71.423C72.3082 33.092 73.0249 33.8096 73.0249 34.6948V43.0667ZM73.0249 24.7891C73.0249 25.6735 72.3082 26.3911 71.423 26.3911H62.362C61.4768 26.3911 60.7592 25.6735 60.7592 24.7891V16.3994C60.7592 15.5143 61.4768 14.7975 62.362 14.7975H71.423C72.3082 14.7975 73.0249 15.5143 73.0249 16.3994V24.7891ZM84.2747 54.5575H0V59.4841H84.2747V54.5575ZM50.2847 73.8696V102.157H33.9883V73.8696H50.2847ZM36.304 86.1039C36.0002 86.4408 35.8533 86.8907 35.9002 87.3421V89.7886C35.9856 90.6046 36.6731 91.2244 37.4937 91.2244C38.3143 91.2244 39.0026 90.6045 39.0872 89.7886V87.3421C39.1342 86.8907 38.988 86.4408 38.6842 86.1039C38.3805 85.7663 37.9475 85.574 37.4937 85.574C37.04 85.574 36.6078 85.7663 36.304 86.1039ZM0 105.343H84.2747V110.253H0V105.343ZM78.3139 62.6731V102.157H53.4909V72.3537C53.4909 71.4685 52.7734 70.7517 51.8882 70.7517H32.3877C31.5026 70.7517 30.785 71.4685 30.785 72.3537V102.157H5.96036V62.6731H78.3139ZM22.4293 89.5986C23.3076 89.5986 24.022 88.8918 24.032 88.0143V76.5238C24.032 75.6386 23.3145 74.9218 22.4293 74.9218H12.8515C11.9732 74.9311 11.2664 75.6455 11.2664 76.5238V88.0143C11.2664 88.8895 11.9763 89.5986 12.8515 89.5986H22.4293ZM61.7931 74.9218C60.9156 74.9311 60.2088 75.6455 60.2088 76.5238L60.2604 87.9966C60.2604 88.8718 60.9695 89.5817 61.8455 89.5817H71.4233C72.2947 89.5817 73.0068 88.8857 73.0253 88.0143V76.5238C73.0253 75.6386 72.3085 74.9218 71.4233 74.9218H61.7931ZM63.4483 78.1242H69.8223V86.4101H63.4483V78.1242ZM20.8267 78.1242H14.4527V86.4101H20.8267V78.1242ZM14.4527 17.9855H20.3269V23.1883H14.4527V17.9855ZM20.3269 36.2793H14.4527V41.4644H20.3269V36.2793ZM30.9548 17.9855H36.8289V23.1883H30.9548V17.9855ZM36.8289 36.2793H30.9548V41.4644H36.8289V36.2793ZM47.4604 17.9855H53.3176V23.1883H47.4604V17.9855ZM53.3176 36.2793H47.4604V41.4644H53.3176V36.2793ZM63.9624 17.9855H69.8365V23.1883H63.9624V17.9855ZM69.8365 36.2793H63.9624V41.4644H69.8365V36.2793Z" fill="white"/>
</svg>
