<svg width="15" height="15" viewBox="0 0 15 15" fill="none" xmlns="http://www.w3.org/2000/svg">
<g clip-path="url(#clip0_140_469)">
<path d="M7.72647 5.12354C6.19968 5.12354 4.95752 6.34012 4.95752 7.83552C4.95752 9.33092 6.19968 10.5475 7.72647 10.5475C9.25326 10.5475 10.4954 9.33092 10.4954 7.83552C10.4954 6.34012 9.25326 5.12354 7.72647 5.12354Z" fill="white"/>
<path d="M11.1506 0.712158H4.30402C2.18144 0.712158 0.45459 2.40353 0.45459 4.48251V11.1885C0.45459 13.2674 2.18144 14.9588 4.30402 14.9588H11.1506C13.2732 14.9588 15 13.2674 15 11.1885V4.48251C15 2.40353 13.2732 0.712158 11.1506 0.712158ZM7.72743 11.3822C5.7307 11.3822 4.10621 9.79117 4.10621 7.83548C4.10621 5.8798 5.7307 4.28873 7.72743 4.28873C9.72416 4.28873 11.3487 5.8798 11.3487 7.83548C11.3487 9.79117 9.72416 11.3822 7.72743 11.3822ZM12.0799 4.16288C12.0006 4.24051 11.8907 4.28506 11.7785 4.28506C11.6666 4.28506 11.5566 4.24051 11.477 4.16288C11.3978 4.08497 11.3526 3.97728 11.3526 3.86768C11.3526 3.75777 11.3978 3.65033 11.477 3.57245C11.5566 3.49482 11.6662 3.4503 11.7785 3.4503C11.8907 3.4503 12.0006 3.49482 12.0799 3.57245C12.1591 3.65036 12.2046 3.75777 12.2046 3.86768C12.2046 3.97756 12.1591 4.08497 12.0799 4.16288V4.16288Z" fill="white"/>
</g>
<defs>
<clipPath id="clip0_140_469">
<rect width="14.5455" height="14.2466" fill="white" transform="translate(0.45459 0.712158)"/>
</clipPath>
</defs>
</svg>
