<svg width="56" height="58" viewBox="0 0 56 58" fill="none" xmlns="http://www.w3.org/2000/svg">
<g clip-path="url(#clip0_156_871)">
<path d="M18.5161 30.5833H38.2035C39.1106 30.5833 39.8441 29.826 39.8441 28.8905V8.46403C39.8441 7.52857 39.1106 6.77122 38.2035 6.77122H33.2817V5.07842C33.2817 2.27823 31.0737 0 28.3598 0C25.646 0 23.438 2.27823 23.438 5.07842V6.77122H18.5161C17.6095 6.77122 16.8755 7.52857 16.8755 8.46403V28.8905C16.8755 29.826 17.6095 30.5833 18.5161 30.5833ZM26.7192 5.07842C26.7192 4.14429 27.4562 3.38561 28.3598 3.38561C29.2634 3.38561 30.0004 4.14429 30.0004 5.07842V6.77122H26.7192V5.07842Z" fill="#C19932"/>
<path d="M52.261 28.0142C51.9662 27.5085 51.4308 27.1978 50.8575 27.1978C47.9667 27.1978 45.3148 28.8531 43.9729 31.495L38.9404 41.405C38.085 43.0846 36.4153 44.1258 34.5795 44.1258H23.4378C22.5312 44.1258 21.7972 43.3685 21.7972 42.433C21.7972 41.4975 22.5312 40.7402 23.4378 40.7402H34.579C35.1913 40.7402 35.7488 40.3933 36.0342 39.8325C36.3184 39.2727 37.1767 37.5821 37.9145 36.1291C38.147 35.6715 38.1307 35.1218 37.8714 34.6796C37.6116 34.2379 37.1472 33.969 36.6465 33.969H19.5926C17.4008 33.969 15.3436 34.8502 13.7927 36.4487L4.09002 46.46C3.44916 47.1213 3.44916 48.1925 4.09002 48.8538L12.2931 57.2852C12.6136 57.6158 13.0335 57.7815 13.4531 57.7815C13.8726 57.7815 14.2926 57.6158 14.6131 57.2852L20.8359 50.897H34.579C38.8634 50.897 42.7629 48.4636 44.753 44.5472L52.3088 29.6774C52.578 29.1533 52.5588 28.522 52.261 28.0142Z" fill="#C19932"/>
</g>
<defs>
<clipPath id="clip0_156_871">
<rect width="56" height="57.7813" fill="white"/>
</clipPath>
</defs>
</svg>
