<svg width="15" height="15" viewBox="0 0 15 15" fill="none" xmlns="http://www.w3.org/2000/svg">
<path d="M14.5472 8.73752V14.0109C14.5472 14.0419 14.5413 14.0726 14.5297 14.1012C14.5181 14.1298 14.5011 14.1558 14.4797 14.1777C14.4582 14.1995 14.4328 14.2169 14.4048 14.2287C14.3768 14.2404 14.3469 14.2464 14.3166 14.2463H11.6599C11.599 14.2463 11.5405 14.2215 11.4974 14.1774C11.4543 14.1332 11.4301 14.0733 11.4301 14.0109V9.10755C11.4301 7.81379 10.9806 6.93576 9.85176 6.93576C9.50017 6.93765 9.15779 7.05087 8.87146 7.25994C8.58513 7.46901 8.3689 7.7637 8.2524 8.10359C8.17232 8.35379 8.13725 8.6168 8.14887 8.87984V14.0109C8.14887 14.0733 8.12466 14.1332 8.08156 14.1774C8.03847 14.2215 7.98 14.2463 7.91905 14.2463H5.2632C5.23299 14.2464 5.20307 14.2404 5.17513 14.2286C5.1472 14.2168 5.12184 14.1995 5.10048 14.1776C5.07912 14.1557 5.06215 14.1297 5.05064 14.1011C5.03913 14.0725 5.03327 14.0418 5.03338 14.0109C5.03927 12.705 5.06623 6.3691 5.03929 4.88042C5.03873 4.84918 5.04427 4.81813 5.05558 4.78911C5.06688 4.76009 5.08375 4.73367 5.10516 4.71141C5.12656 4.68916 5.15207 4.67151 5.18022 4.65951C5.20838 4.6475 5.23861 4.64138 5.26911 4.6415H7.91905C7.98008 4.64173 8.03854 4.66672 8.08162 4.71102C8.12469 4.75531 8.14887 4.81529 8.14887 4.87782V5.99909C8.14298 6.0103 8.1337 6.02064 8.1278 6.03099H8.14887V5.99909C8.43085 5.49681 8.84176 5.0833 9.337 4.80351C9.83223 4.52372 10.3928 4.38835 10.9579 4.41209C13.0085 4.41209 14.5464 5.78518 14.5464 8.73494L14.5472 8.73752ZM0.422931 14.2454H3.07879C3.13974 14.2454 3.1982 14.2206 3.2413 14.1765C3.2844 14.1323 3.3086 14.0724 3.3086 14.01V4.87611C3.30861 4.81358 3.28442 4.7536 3.24135 4.70931C3.19828 4.66501 3.13981 4.63999 3.07879 4.63977H0.422931C0.361905 4.63999 0.303443 4.66501 0.26037 4.70931C0.217296 4.7536 0.193115 4.81358 0.193115 4.87611L0.193115 14.0109C0.193338 14.0732 0.217656 14.1328 0.260729 14.1768C0.303802 14.2208 0.362128 14.2454 0.422931 14.2454V14.2454Z" fill="white"/>
<path d="M1.66842 3.41896C2.58986 3.41896 3.33684 2.6536 3.33684 1.70948C3.33684 0.76536 2.58986 0 1.66842 0C0.746976 0 0 0.76536 0 1.70948C0 2.6536 0.746976 3.41896 1.66842 3.41896Z" fill="white"/>
</svg>
