<svg width="15" height="11" viewBox="0 0 15 11" fill="none" xmlns="http://www.w3.org/2000/svg">
<path d="M13.8932 0H1.10186C0.494613 0 0 0.552187 0 1.23012V9.76988C0 10.4478 0.494613 11 1.10186 11H13.8981C14.5054 11 15 10.4478 15 9.76988V1.23012C15 0.552187 14.5054 0 13.8981 0H13.8932ZM14.1087 1.42147L7.63467 5.43439C7.59549 5.45626 7.55632 5.47266 7.51224 5.47266H7.47796C7.43389 5.47266 7.38981 5.46173 7.35553 5.43439L0.881489 1.42147C0.75906 1.34493 0.714985 1.16998 0.783546 1.0333C0.852106 0.89662 1.00882 0.847415 1.13124 0.923955L7.49755 4.87127L13.8639 0.923955C13.9863 0.847415 14.143 0.89662 14.2116 1.0333C14.2801 1.16998 14.236 1.34493 14.1136 1.42147H14.1087Z" fill="white"/>
</svg>
