<svg width="122" height="110" viewBox="0 0 122 110" fill="none" xmlns="http://www.w3.org/2000/svg">
<path fill-rule="evenodd" clip-rule="evenodd" d="M100.951 14.9371C100.255 14.938 99.6027 14.5973 99.2044 14.0261C98.4714 12.9268 98.057 11.6464 98.007 10.3261C97.9561 9.0066 98.2722 7.69807 98.9197 6.54637C99.6036 4.83792 99.7553 4.21164 99.1858 3.3574C98.5138 2.37608 98.7595 1.03708 99.7367 0.358258C100.726 -0.288366 102.051 -0.0366586 102.736 0.927756C103.411 1.99906 103.786 3.23289 103.819 4.49899C103.853 5.76512 103.543 7.01676 102.926 8.12187L102.925 8.12271C102.204 9.92615 102.033 10.5906 102.716 11.5584C103.39 12.5287 103.153 13.8609 102.185 14.5388C101.828 14.8024 101.395 14.9422 100.951 14.9371ZM107.522 19.2458C107.805 19.789 108.31 20.1848 108.905 20.3322C109.5 20.4806 110.13 20.3661 110.635 20.0187C111.141 19.6721 111.474 19.1246 111.55 18.5161C111.626 17.9076 111.438 17.2958 111.034 16.8347C110.35 15.8856 110.521 15.2212 111.242 13.4178C111.861 12.3127 112.169 11.0602 112.135 9.79402C112.102 8.52791 111.728 7.29474 111.052 6.22278C110.367 5.25837 109.044 5.00751 108.053 5.65328C107.086 6.33803 106.841 7.66941 107.502 8.65329C108.09 9.50754 107.92 10.1338 107.236 11.8423H107.237C106.604 12.9846 106.296 14.2786 106.346 15.5838C106.396 16.8889 106.803 18.1552 107.522 19.2458ZM103.721 30.5446C110.635 37.4244 114.732 46.6364 115.21 56.377L115.229 56.5863L36.8852 56.5855V56.377C37.369 46.6244 41.4774 37.4048 48.4064 30.5251C55.335 23.6453 64.5834 19.6021 74.3386 19.1885L74.3395 19.1877V16.0935H71.2258C70.2817 16.0935 69.5173 15.3291 69.5173 14.385C69.5173 13.4418 70.2817 12.6765 71.2258 12.6765H80.9641C81.9073 12.6765 82.6726 13.4418 82.6726 14.385C82.6726 15.3291 81.9073 16.0935 80.9641 16.0935H77.8318V19.1885C87.5746 19.6166 96.807 23.6666 103.721 30.5446ZM32.7825 60.0976H119.327C120.449 60.2019 121.306 61.1443 121.306 62.2706C121.306 63.3978 120.449 64.3394 119.327 64.4445H32.7825C31.6605 64.3393 30.8029 63.3977 30.8029 62.2706C30.8029 61.1442 31.6605 60.2019 32.7825 60.0976ZM0 107.823H14.4841V70.2749H2.73402L0 107.823ZM102.263 82.9167C102.534 82.8888 102.808 82.8888 103.079 82.9167L103.079 82.9163C103.846 82.9375 104.588 83.19 105.207 83.6409C105.828 84.0909 106.297 84.7188 106.553 85.4417C106.715 85.8595 106.799 86.3036 106.8 86.7511C106.805 87.5146 106.579 88.2621 106.152 88.8952C105.725 89.5291 105.118 90.0189 104.408 90.3011L58.8484 109.056C57.9577 109.456 56.9959 109.676 56.0196 109.702C55.445 109.705 54.8721 109.641 54.3111 109.512L26.4437 102.792C25.7294 102.618 24.9963 102.535 24.2607 102.545H17.9962V74.7732H31.5887C32.6776 74.7758 33.7547 74.9953 34.7581 75.4182L47.1736 80.7717C48.6135 81.3886 50.1635 81.7056 51.7296 81.7022H61.5059C63.2397 81.8083 64.7982 82.7955 65.6364 84.3167C66.4737 85.8386 66.4737 87.6836 65.6364 89.2057C64.7983 90.7269 63.2398 91.7142 61.5059 91.8201H47.0217C46.5243 91.7684 46.0285 91.9303 45.6565 92.2651C45.2853 92.5998 45.0734 93.0761 45.0734 93.5761C45.0734 94.0761 45.2853 94.5524 45.6565 94.8871C46.0285 95.2219 46.5243 95.3838 47.0217 95.3321H61.5059C63.215 95.338 64.8863 94.8278 66.3016 93.8702C67.7177 92.9117 68.811 91.5491 69.4406 89.9601L102.263 82.9167Z" fill="white"/>
</svg>
