<svg width="16" height="15" viewBox="0 0 16 15" fill="none" xmlns="http://www.w3.org/2000/svg">
<path d="M15.3105 2.45221C14.8408 2.69242 14.3471 2.85999 13.8414 2.95082C14.0778 2.90391 14.427 2.39487 14.5668 2.18987C14.7845 1.87724 14.9504 1.51853 15.0557 1.13268C15.0689 1.10228 15.0784 1.06407 15.0557 1.04582C15.0432 1.03947 15.0297 1.03685 15.0161 1.03822C15.0026 1.03958 14.9896 1.04488 14.9782 1.05365C14.4264 1.40344 13.8399 1.66987 13.2324 1.84674C13.2114 1.85448 13.189 1.855 13.1677 1.84824C13.1465 1.84147 13.1273 1.82769 13.1124 1.80851C13.0655 1.74223 13.0144 1.68037 12.9594 1.62349C12.7073 1.3658 12.4218 1.15812 12.114 1.00847C11.7029 0.811117 11.2595 0.726486 10.817 0.760898C10.3874 0.795562 9.96857 0.936094 9.58728 1.17352C9.20475 1.41096 8.86702 1.73845 8.59473 2.136C8.31254 2.54847 8.11014 3.02947 8.00184 3.54499C7.90939 4.03351 7.89895 4.53886 7.97111 5.03216C7.97989 5.11903 7.9711 5.12684 7.91035 5.11902C5.60069 4.83981 3.46193 3.54778 1.91265 1.49579C1.83945 1.4011 1.80508 1.40111 1.74726 1.50361C1.43573 2.18602 1.3179 2.96945 1.41126 3.73763C1.50461 4.5058 1.80413 5.2178 2.26545 5.76793C2.38329 5.89997 2.50407 6.02852 2.63143 6.15274C2.22798 6.11694 1.83459 5.98612 1.4742 5.76793C1.40101 5.71494 1.36882 5.74533 1.36296 5.83915C1.35833 5.97565 1.36471 6.11236 1.38199 6.24742C1.45254 6.88804 1.66516 7.49493 1.99811 8.00607C2.33106 8.5172 2.7724 8.91424 3.27703 9.1566C3.40027 9.22028 3.5292 9.26721 3.66133 9.29647C3.28749 9.38524 2.90378 9.39933 2.52604 9.33816C2.44333 9.31904 2.41187 9.36857 2.44334 9.46326C2.63764 10.0668 2.95874 10.6013 3.37612 11.016C3.7935 11.4308 4.29331 11.712 4.82807 11.833C4.9364 11.8556 5.04765 11.8556 5.15232 11.886C5.14573 11.8973 5.13988 11.8973 5.13329 11.9086C4.66994 12.4042 4.11046 12.756 3.50469 12.9327C2.71244 13.2679 1.86849 13.3959 1.03067 13.308C0.89745 13.2845 0.869604 13.2863 0.833738 13.308C0.797872 13.3297 0.829348 13.3723 0.871802 13.4131C1.04015 13.5451 1.21217 13.6624 1.38418 13.7753C1.90972 14.1066 2.4642 14.3688 3.0377 14.5571C4.51319 15.0838 6.07926 15.1419 7.57957 14.7256C9.07988 14.3093 10.4619 13.4332 11.5877 12.1848C12.3982 11.1424 13.025 9.91826 13.4314 8.58436C13.8378 7.25047 14.0155 5.83367 13.9542 4.41714C13.9542 4.30508 14.0654 4.2434 14.1312 4.1852C14.5741 3.77576 14.9643 3.29172 15.2892 2.74841C15.3405 2.6699 15.3664 2.57225 15.3624 2.47304V2.45221C15.3646 2.40704 15.3697 2.42093 15.3105 2.45221Z" fill="white"/>
</svg>
