<svg width="56" height="45" viewBox="0 0 56 45" fill="none" xmlns="http://www.w3.org/2000/svg">
<path d="M9.95312 14.4266C13.5775 14.4266 16.5156 11.395 16.5156 7.65534C16.5156 3.91568 13.5775 0.884094 9.95312 0.884094C6.32876 0.884094 3.39062 3.91568 3.39062 7.65534C3.39062 11.395 6.32876 14.4266 9.95312 14.4266Z" fill="#C19932"/>
<path d="M25.6259 8.91466H22.4493C21.6488 8.91466 21 8.26231 21 7.4573C21 6.65228 21.6488 5.99994 22.4493 5.99994H33.5507C34.3512 5.99994 35 6.65228 35 7.4573C35 8.26231 34.3512 8.91466 33.5507 8.91466H30.8764C31.2646 9.50366 31.5329 10.1638 31.6657 10.8578H33.5499C34.3505 10.8578 34.9992 11.5101 34.9992 12.3152C34.9992 13.1202 34.3505 13.7725 33.5499 13.7725H31.6657C31.325 15.039 30.6063 16.1694 29.6065 17.0135C28.6075 17.8566 27.3748 18.3711 26.0755 18.489L31.3828 23.4761C31.6666 23.7407 31.8348 24.1077 31.8478 24.4972C31.8607 24.8858 31.7175 25.264 31.4518 25.5459C31.1852 25.8287 30.8177 25.9918 30.4304 25.9996C30.0439 26.0075 29.6695 25.8591 29.3925 25.5867L21.4531 18.0353C21.0235 17.6172 20.8846 16.9805 21.1029 16.421C21.3203 15.8606 21.8517 15.4867 22.4496 15.4728H25.6261C26.8485 15.4806 27.9821 14.8326 28.6007 13.7726H22.4496C21.649 13.7726 21.0002 13.1202 21.0002 12.3152C21.0002 11.5102 21.649 10.8579 22.4496 10.8579H28.6007C28.3514 10.2749 27.9356 9.77959 27.4059 9.43347C26.8771 9.08821 26.2574 8.90684 25.6259 8.91466Z" fill="#C19932"/>
<path d="M16.5156 43.2044V39.4557C10.6817 36.3668 6.67188 30.1089 6.67188 22.8906C6.67188 21.955 7.40567 21.1978 8.3125 21.1978C9.21933 21.1978 9.95312 21.955 9.95312 22.8906C9.95312 31.2918 16.5765 38.1259 24.7188 38.1259H28C29.8122 38.1259 31.2812 36.61 31.2812 34.7403C31.2812 32.8704 29.8122 31.3547 28 31.3547H24.7188C20.1942 31.3547 16.5156 27.5575 16.5156 22.8906C16.5156 18.2238 12.837 14.4266 8.3125 14.4266C3.78798 14.4266 0 18.2238 0 22.8906V43.2044C0 44.14 0.733797 44.8972 1.64062 44.8972H14.875C15.7818 44.8972 16.5156 44.14 16.5156 43.2044Z" fill="#C19932"/>
<path d="M46.0469 14.4266C49.6712 14.4266 52.6094 11.395 52.6094 7.65534C52.6094 3.91568 49.6712 0.884094 46.0469 0.884094C42.4225 0.884094 39.4844 3.91568 39.4844 7.65534C39.4844 11.395 42.4225 14.4266 46.0469 14.4266Z" fill="#C19932"/>
<path d="M47.6876 14.4266C43.163 14.4266 39.4844 18.2238 39.4844 22.8906C39.4844 26.7711 36.9266 30.0157 33.4683 31.0104C34.1566 32.0812 34.5626 33.3618 34.5626 34.7403C34.5626 35.8731 34.2657 36.9254 33.7873 37.8646C40.7342 36.628 46.0469 30.4064 46.0469 22.8906C46.0469 21.955 46.7807 21.1978 47.6876 21.1978C48.5944 21.1978 49.3282 21.955 49.3282 22.8906C49.3282 30.1089 45.3184 36.3668 39.4844 39.4557V43.2044C39.4844 44.14 40.2182 44.8972 41.1251 44.8972H54.3594C55.2663 44.8972 56.0001 44.14 56.0001 43.2044V22.8906C56.0001 18.2238 52.2121 14.4266 47.6876 14.4266Z" fill="#C19932"/>
</svg>
