<svg width="56" height="56" viewBox="0 0 56 56" fill="none" xmlns="http://www.w3.org/2000/svg">
<g clip-path="url(#clip0_188_1524)">
<path d="M45.4277 21.3243H45.5477L44.7982 22.8523H44.7483C42.602 23.345 40.4303 23.7182 38.2427 23.971C37.2434 23.8511 36.2441 23.7512 35.2448 23.6714H35.1248L36.2039 19.8062H36.2838C36.7036 19.8062 37.1131 19.886 37.5231 19.9359L38.0027 19.9859H38.0031C40.504 20.2712 42.9844 20.7184 45.4278 21.3244L45.4277 21.3243ZM56 19.0771V48.0407C55.6797 49.1688 54.9722 50.1483 54.0014 50.8073C53.6615 51.057 53.272 51.3165 52.7925 51.6063C51.2369 52.4543 49.5912 53.124 47.8857 53.6038C44.9651 54.4438 41.9806 55.0453 38.9622 55.4015H38.8524V35.8854H38.9425H38.9421C42.2446 35.506 45.4972 34.7761 48.6454 33.7083C51.4836 32.7095 53.342 31.4811 53.7516 30.3825V28.8643C53.4317 29.1095 53.098 29.3365 52.7523 29.5434C51.2145 30.4347 49.5595 31.107 47.8357 31.5409C44.9329 32.3113 41.9863 32.9083 39.0121 33.3288L35.5548 33.6583L34.2155 33.7582V36.3147L35.5548 36.2149L36.9636 36.115H37.0734V55.6402H36.9636C36.0942 55.7302 35.135 55.8101 34.0158 55.8899L32.0172 55.9996L31.9673 56V48.4795H23.973V56H23.8633L21.8647 55.8903C20.7454 55.8105 19.7863 55.7307 18.9169 55.6406H18.8268V36.0846H18.9365C20.0357 36.1943 21.035 36.2745 21.9343 36.3245V33.7977C20.8351 33.738 19.8358 33.6577 18.8865 33.5578C17.9371 33.458 17.4473 33.4178 16.8879 33.338C13.9111 32.98 10.9671 32.3856 8.0844 31.5604C6.37443 31.0855 4.72475 30.4149 3.16781 29.5629C2.82208 29.356 2.48839 29.129 2.16853 28.8838V30.3819C2.57805 31.4806 4.43696 32.6889 7.27469 33.7077H7.27514C10.4247 34.7635 13.6768 35.4836 16.978 35.8549H17.0681V55.4201L16.7086 55.3702H16.7081C13.8048 54.997 10.9328 54.4129 8.11428 53.6224C6.40876 53.1427 4.76309 52.4725 3.20797 51.6249C2.72841 51.3351 2.33851 51.0756 1.99901 50.8259H1.99857C1.03586 50.1674 0.330163 49.1971 0 48.0794V19.1158C0.283728 17.9253 0.995263 16.8802 1.99857 16.1792C2.88989 15.5136 3.85575 14.9536 4.87684 14.5113C5.4898 14.2326 6.11653 13.986 6.75538 13.7725C9.38881 12.8571 12.1019 12.1883 14.8594 11.775V5.00732e-05L15.0093 0.0700515L25.1622 5.22335L17.0479 8.32928V11.4455L18.157 11.3157H18.277L18.8266 11.2658H19.3164C21.6246 11.0362 24.163 10.9064 26.8708 10.8663V5.9217e-05L27.0108 0.0700606L37.1834 5.22336L29.0691 8.32975V10.7967C31.777 10.7967 34.3154 10.9666 36.6235 11.1962H37.1133L37.6629 11.2461H37.7829L38.8919 11.3759V0L39.0418 0.070001L49.2144 5.2233L41.1001 8.32923V11.7651H41.1006C43.8607 12.1802 46.577 12.8486 49.2144 13.7626C49.934 14.0123 50.5434 14.2522 51.0831 14.5019C52.0994 14.9353 53.0616 15.485 53.9511 16.1396C54.9509 16.8361 55.6616 17.8732 55.9497 19.0561L56 19.0771ZM29.1987 33.959V36.496C30.0681 36.496 30.9875 36.496 32.0065 36.4162L32.0069 33.959L29.1987 33.959ZM24.2022 33.8791V36.4259C25.2814 36.4259 26.2008 36.4856 27.0101 36.4959L27.0105 33.9588H24.1924L24.2022 33.8791ZM39.1013 30.6034V31.0729L39.1017 31.0724C42.361 30.7073 45.573 30.001 48.6846 28.9652C51.5227 27.9665 53.3812 26.7381 53.7907 25.6395L53.7912 23.3821L53.3013 23.7218L53.2112 23.7918C52.9712 23.9416 52.7018 24.1013 52.3716 24.2814C52.042 24.4611 51.4723 24.7509 50.9427 24.9903H50.9432C50.0688 25.3711 49.1748 25.7042 48.2647 25.9891H48.035C47.5354 26.1389 47.0357 26.2985 46.4562 26.4287L45.9664 26.5585L45.5569 26.6681C45.4324 26.6878 45.3089 26.7145 45.1871 26.7479H44.7874L44.3876 26.838C42.7188 27.1974 40.9303 27.5073 39.0713 27.7467V30.4732L39.1013 30.6034ZM38.3719 25.7394C42.0594 25.3948 45.6943 24.6239 49.2043 23.4423C50.0461 23.148 50.8589 22.7771 51.6325 22.3334C52.2428 21.9923 52.7928 21.5536 53.2613 21.0351C53.5013 20.7457 53.669 20.4033 53.7511 20.0363C53.7596 19.9935 53.7596 19.9494 53.7511 19.9066V19.4371C53.7364 19.3149 53.6989 19.1963 53.6414 19.0875C53.6271 19.0483 53.6071 19.0108 53.5812 18.9778C52.3223 16.3909 45.4468 14.1937 36.044 13.3549C34.7852 13.235 33.5056 13.1552 32.2468 13.0954H29.8784L27.97 12.9853H23.603L21.7245 13.095C21.075 13.095 20.4852 13.1748 19.916 13.235C10.5325 14.0741 3.65791 16.2312 2.39825 18.8481L2.31839 18.968H2.31795C2.26709 19.0786 2.23363 19.1963 2.21802 19.3176V19.9766C2.20865 20.0127 2.20865 20.0506 2.21802 20.0862C2.30278 20.4545 2.47409 20.797 2.71766 21.085C3.16734 21.6044 3.70534 22.0409 4.30669 22.3735C6.93475 23.8918 11.6417 25.1001 17.5772 25.7791C21.0251 26.2009 24.4959 26.4109 27.9697 26.4087C31.4462 26.4176 34.9205 26.2143 38.3721 25.7992L38.3719 25.7394ZM2.72774 23.7419L2.63763 23.6719L2.15807 23.3424V25.5897C2.55823 26.728 4.41668 27.9666 7.25487 28.9653C10.3611 30.0069 13.5651 30.7296 16.8181 31.1224V27.9068C14.9292 27.6571 13.1706 27.3574 11.5816 27.0079L11.1819 26.9178H11.0918L10.9218 26.8679H10.7817L10.4222 26.7881L9.98273 26.628L9.4929 26.4983C8.9531 26.3685 8.42357 26.2187 7.91415 26.0586H7.69421V26.0591C6.77211 25.7474 5.86787 25.3836 4.98633 24.9703C4.4568 24.7304 3.98705 24.5008 3.55741 24.2613C3.12781 24.0215 2.98773 23.9715 2.71783 23.7816L2.72774 23.7419ZM19.0463 30.2637V31.3721C22.0112 31.6722 24.9898 31.8189 27.9699 31.8117C30.9396 31.8202 33.908 31.6771 36.8635 31.3824V28.1663C33.9147 28.4606 30.953 28.6073 27.99 28.6059C24.9863 28.6117 21.9844 28.4619 18.9964 28.1565V30.2637L19.0463 30.2637ZM50.3541 20.9753C50.9742 20.7212 51.5229 20.3204 51.953 19.8067V19.7568C51.258 18.9422 50.3577 18.3282 49.345 17.9792H49.2549L48.1959 20.1362L48.0759 20.2562L48.2356 20.3061C48.985 20.5357 49.6846 20.7854 50.314 21.0454L50.3541 20.9753ZM6.73515 17.9791V17.9194H6.63523C5.59981 18.2662 4.68257 18.8958 3.98707 19.7367C4.38322 20.2727 4.90962 20.6989 5.51592 20.9754H5.60603C6.23549 20.7257 6.9252 20.476 7.70452 20.2165L7.85442 20.1568L7.74467 20.0569L6.73515 17.9791ZM37.5633 15.3124H37.4732L36.7139 18.0492H36.8339C40.0254 18.3533 43.1891 18.9008 46.2972 19.6869H46.3771L47.5664 17.2801H47.4562C44.2348 16.2876 40.9198 15.6281 37.5633 15.3125L37.5633 15.3124ZM35.5648 15.1126C34.5655 15.0128 33.4363 14.9428 32.2172 14.883H29.789L27.9702 14.7831H23.6733L21.8447 14.883C21.3049 14.883 20.8454 14.9428 20.4457 14.9927H20.3257L21.0952 17.7593H21.175C23.4137 17.5796 25.712 17.4895 28.0001 17.4895C30.2886 17.4895 32.587 17.5796 34.8251 17.7593H34.905L35.6745 14.9927L35.5648 15.1126ZM19.2268 18.0389L18.4675 15.3021L18.3774 15.3026C15.0217 15.6173 11.7089 16.287 8.4943 17.3001H8.38455L9.56359 19.697H9.64345C12.7515 18.9105 15.9153 18.363 19.1067 18.0589L19.2268 18.0389ZM27.9704 19.4175C25.8518 19.4175 23.7332 19.4875 21.6749 19.6373H21.5451L22.6345 23.5226H22.7144C24.5033 23.4129 26.2716 23.3528 27.9905 23.3528C29.7094 23.3528 31.4581 23.4125 33.2465 23.5226H33.3263L34.4157 19.6373H34.2859C32.2174 19.4871 30.0988 19.4175 27.9704 19.4175ZM19.6265 19.8072C19.2067 19.8072 18.7972 19.887 18.3871 19.937L17.9076 19.9869V19.9865C15.4129 20.2727 12.9397 20.7199 10.5031 21.325H10.3831L11.1423 22.8633L17.6876 23.9717C18.6869 23.8518 19.6861 23.7519 20.6854 23.6721H20.8054L19.7263 19.8069L19.6265 19.8072Z" fill="white"/>
</g>
<defs>
<clipPath id="clip0_188_1524">
<rect width="56" height="56" fill="white"/>
</clipPath>
</defs>
</svg>
