<svg width="121" height="108" viewBox="0 0 121 108" fill="none" xmlns="http://www.w3.org/2000/svg">
<path d="M120.895 56.7933L118.214 48.7904C119.357 47.8256 120.05 46.3788 120.05 44.7869C120.05 42.6154 118.736 40.7488 116.872 39.9679L116.871 24.8368C116.871 24.6531 116.838 24.4783 116.794 24.3095C116.782 24.269 116.771 24.2315 116.758 24.193C116.7 24.0271 116.631 23.8681 116.536 23.7249C116.536 23.7249 116.535 23.7239 116.533 23.7219C116.438 23.5787 116.32 23.4562 116.192 23.3437C116.162 23.318 116.133 23.2913 116.101 23.2666C115.965 23.16 115.816 23.0691 115.655 23.001C115.651 23 115.648 22.9951 115.643 22.9941L59.1595 0.140724C58.6959 -0.0469079 58.1789 -0.0469079 57.7153 0.140724L1.22944 22.9951C0.486908 23.2953 0 24.0251 0 24.8368C0 25.6486 0.487878 26.3784 1.22944 26.6786L21.0103 34.6815V45.6865C21.0074 45.8109 21.0074 45.9334 21.0103 46.0558V51.1208C20.8013 52.9685 21.3845 54.7509 22.7004 56.2857C22.9162 56.5375 23.1543 56.7814 23.4089 57.0185C22.6849 58.9451 22.1076 60.938 21.7072 62.9615C21.2193 65.4244 20.9724 67.9307 20.9724 70.4115C20.9724 75.4853 21.9502 80.4083 23.8805 85.0407C24.0253 85.3903 24.207 85.7172 24.3625 86.0609C24.5462 86.4687 24.7367 86.8716 24.934 87.2696C25.2848 87.9806 25.659 88.6768 26.0526 89.3612C26.2441 89.693 26.4404 90.0228 26.6416 90.3497C27.0741 91.0489 27.527 91.7323 28.0032 92.4008C28.2268 92.7139 28.4542 93.0229 28.6855 93.3301C29.1588 93.9522 29.6506 94.5605 30.1657 95.156C30.4582 95.4958 30.7576 95.8295 31.0618 96.1574C31.3145 96.4299 31.5438 96.7232 31.8072 96.9899C32.0706 97.2575 32.3573 97.4896 32.6275 97.7473C32.9492 98.0554 33.2757 98.3566 33.6081 98.6529C34.1952 99.1773 34.7967 99.6789 35.4119 100.163C35.7103 100.397 36.0136 100.627 36.3187 100.85C36.9796 101.337 37.6541 101.799 38.3451 102.24C38.6639 102.443 38.9846 102.64 39.3102 102.833C39.9866 103.235 40.6747 103.616 41.3774 103.975C41.7671 104.174 42.1598 104.365 42.5563 104.551C42.8965 104.71 43.2201 104.897 43.5671 105.045C48.1281 107.005 52.9721 108 57.9646 108C62.958 108 67.803 107.007 72.3621 105.045C72.7071 104.896 73.0327 104.71 73.3728 104.551C73.7694 104.367 74.162 104.174 74.5517 103.977C75.2544 103.618 75.9425 103.237 76.6189 102.835C76.9436 102.642 77.2643 102.445 77.5831 102.242C78.2741 101.801 78.9495 101.337 79.6104 100.85C79.9166 100.626 80.2178 100.397 80.5143 100.164C81.1295 99.6799 81.7311 99.1783 82.3181 98.6539C82.6505 98.3576 82.978 98.0554 83.2987 97.7483C83.567 97.4896 83.8556 97.2575 84.119 96.9909C84.3824 96.7233 84.6098 96.432 84.8644 96.1584C85.1687 95.8305 85.467 95.4967 85.7605 95.1571C86.2737 94.5616 86.7674 93.9532 87.2407 93.3311C87.472 93.0259 87.7004 92.7168 87.922 92.4038C88.3982 91.7352 88.8531 91.0518 89.2856 90.3527C89.4877 90.0258 89.6841 89.695 89.8775 89.3612C90.2711 88.6778 90.6433 87.9826 90.9951 87.2726C91.1924 86.8726 91.3829 86.4697 91.5686 86.0618C91.7231 85.7182 91.9058 85.3913 92.0506 85.0417C93.9798 80.4072 94.9586 75.4853 94.9586 70.4125C94.9586 67.9535 94.7215 65.4877 94.253 63.0851C93.8818 61.1781 93.3521 59.2889 92.6834 57.4462C94.8051 55.7368 95.9052 53.8189 95.9052 51.7383C95.9052 49.9834 95.9023 48.2265 95.8994 46.4697C95.9033 46.3828 95.9052 46.295 95.9052 46.208H95.8984C95.8955 44.6073 95.8916 43.0055 95.8867 41.4047C95.8809 39.163 95.877 36.9194 95.8722 34.6767L112.97 27.7581V39.9639C111.108 40.7451 109.792 42.6116 109.792 44.783C109.792 46.3749 110.486 47.8207 111.628 48.7874L108.947 56.7893C108.744 57.3947 108.842 58.0623 109.207 58.5837C109.574 59.1041 110.165 59.4132 110.795 59.4132H119.049C119.679 59.4132 120.269 59.1041 120.636 58.5837C121.002 58.0672 121.098 57.3986 120.895 56.7933ZM116.146 44.7869C116.146 45.3311 115.79 45.8209 115.277 45.9789C115.152 46.0174 115.033 46.0687 114.919 46.1309C114.805 46.0687 114.686 46.0184 114.562 45.9789C114.05 45.8219 113.693 45.332 113.693 44.7869C113.693 44.1006 114.243 43.5416 114.919 43.5416C115.596 43.5416 116.146 44.1006 116.146 44.7869ZM42.1348 93.6775L46.1437 87.9883H58.7588L62.7805 93.6153L59.4906 103.903C58.9813 103.926 58.4769 103.978 57.9637 103.978C53.2394 103.978 48.6784 102.947 44.4915 101.045L42.1348 93.6775ZM81.6896 93.5175L86.1777 79.4798C86.2302 79.3169 86.2574 79.149 86.2671 78.9801L90.5376 75.8279C89.4724 82.5283 86.4547 88.7143 81.7429 93.6835L81.6896 93.5175ZM82.2698 78.6522L82.2979 78.7776L78.2987 91.2837H65.9361L61.9175 85.6598L65.8187 73.4618L72.3254 71.3139L82.2698 78.6522ZM42.9812 85.6656L39.0217 91.2827H32.1097C28.7228 86.9673 26.4679 81.9288 25.4941 76.5349L32.62 71.2752L39.0762 73.4527L42.9812 85.6656ZM29.8899 88.1551C29.7509 87.93 29.6158 87.7019 29.4817 87.4718C29.6149 87.6999 29.7519 87.928 29.8899 88.1551ZM28.3699 85.393C28.229 85.1066 28.0929 84.8182 27.9607 84.5259C28.0929 84.8182 28.2309 85.1056 28.3699 85.393ZM31.7063 90.8215C31.5469 90.6102 31.3905 90.3979 31.2369 90.1826C31.3924 90.3969 31.5469 90.6112 31.7063 90.8215ZM82.104 93.3554C82.3226 93.1184 82.5365 92.8784 82.7483 92.6355C82.5355 92.8784 82.3207 93.1184 82.104 93.3554ZM86.4443 87.4695C86.3102 87.6996 86.176 87.9277 86.0361 88.1529C86.1741 87.9277 86.3102 87.6996 86.4443 87.4695ZM84.6881 90.1814C84.5336 90.3967 84.3771 90.61 84.2177 90.8213C84.3781 90.611 84.5345 90.3967 84.6881 90.1814ZM71.1176 67.5401L64.6109 69.688L58.3052 65.0318C58.3791 65.0328 58.4286 65.0348 58.4393 65.0348C63.2288 65.0348 67.8812 64.7375 72.1974 64.1707L71.1176 67.5401ZM40.2884 69.6841L33.7553 67.4809L31.7794 61.301C36.7284 62.8593 42.5974 63.7738 47.5717 64.3061L40.2884 69.6841ZM86.618 56.469C85.0728 57.103 83.4234 57.6886 81.6878 58.216C75.3229 60.0538 67.1474 61.0689 58.4363 61.0689C51.6564 61.0689 30.4186 59.2499 25.6415 53.6811C25.2518 53.2278 25.0497 52.819 24.9525 52.4635C28.3521 54.8691 34.0037 56.7266 41.8059 57.9995C49.374 59.2329 56.3774 59.5035 58.4379 59.5035C68.1159 59.5035 77.242 58.2948 84.1319 56.1004C87.3071 55.0892 89.8641 53.9131 91.7739 52.5986C91.2325 53.7066 89.6621 55.1032 86.618 56.469ZM91.979 41.4191C91.9829 43.0614 91.9878 44.7026 91.9907 46.3448C91.8556 47.8459 89.4375 50.2555 82.9628 52.3184C76.4395 54.3962 67.7286 55.5397 58.4353 55.5397C51.6407 55.5397 31.3307 53.8017 25.9938 48.2073C25.2989 47.4775 24.9432 46.7467 24.9121 45.9784V36.265L57.7119 49.5354C57.9432 49.6292 58.1881 49.6757 58.434 49.6757C58.6798 49.6757 58.9248 49.6292 59.1561 49.5354L91.9707 36.2589C91.9746 37.9773 91.9775 39.6976 91.9814 41.4188L91.979 41.4191ZM58.4328 45.5578L7.22412 24.8374L58.4328 4.11904L109.642 24.8374L58.4328 45.5578ZM113.515 55.45L114.916 51.2688L116.317 55.45H113.515Z" fill="white"/>
</svg>
