<svg width="122" height="107" viewBox="0 0 122 107" fill="none" xmlns="http://www.w3.org/2000/svg">
<path fill-rule="evenodd" clip-rule="evenodd" d="M122 15.6956C121.99 18.1002 121.027 20.403 119.324 22.0992C117.621 23.7963 115.314 24.7486 112.909 24.7486H90.5899C88.1541 24.7486 85.874 23.5506 84.493 21.5444C83.112 19.5381 82.8061 16.981 83.6746 14.7061C84.5438 12.4304 86.4773 10.7282 88.8437 10.1538C89.2309 8.53638 90.1511 7.09508 91.455 6.06241C92.7598 5.03044 94.373 4.46615 96.037 4.46023C96.6776 4.46362 97.3147 4.54665 97.9349 4.70678C98.7483 3.27151 99.9294 2.0786 101.357 1.25069C102.785 0.423752 104.407 -0.00835835 106.058 0.000122475C108.096 0.0272351 110.072 0.710126 111.692 1.94715C113.313 3.18501 114.491 4.91089 115.054 6.87059C117.03 7.35692 118.786 8.48971 120.044 10.0885C121.303 11.6873 121.992 13.6607 122 15.6958L122 15.6956ZM30.9759 26.4691C32.5086 24.9508 33.3711 22.8827 33.3711 20.7255L33.3712 20.7253C33.3762 18.5793 32.5298 16.5186 31.0174 14.9961C29.5058 13.4736 27.4512 12.6128 25.3051 12.6026C25.0145 12.5831 24.723 12.5831 24.4324 12.6026C23.8884 10.1989 22.2786 8.17471 20.0588 7.10461C17.8397 6.03366 15.2529 6.03366 13.034 7.10461C10.8142 8.1748 9.2044 10.1989 8.66046 12.6026C5.76548 12.6026 3.08977 14.1472 1.64263 16.6543C0.194644 19.1621 0.194644 22.2512 1.64263 24.7584C3.08958 27.2655 5.76527 28.8101 8.66046 28.8101H25.2102C27.3673 28.8305 29.444 27.9882 30.9759 26.4691ZM63.1666 55.7595H62.9582L62.9581 49.8387H80.5136L80.5128 55.779H80.3044C77.2033 55.4469 74.0863 55.2757 70.9666 55.2664C68.3594 55.2715 65.7542 55.4367 63.1666 55.7595ZM22.8741 91.7259C20.8914 91.7514 18.9995 92.5605 17.6125 93.9771C16.2255 95.3946 15.4553 97.3027 15.4723 99.2854C15.4892 101.268 16.2907 103.163 17.7014 104.556C19.1121 105.95 21.0176 106.727 23.0002 106.719C24.9828 106.711 26.8817 105.917 28.2805 104.512C29.6793 103.107 30.4655 101.206 30.4655 99.2226C30.4401 97.2265 29.6293 95.3193 28.2085 93.9161C26.7877 92.513 24.8711 91.7259 22.8741 91.7259ZM97.6888 91.7259C95.7062 91.7514 93.8143 92.5605 92.4272 93.9771C91.0394 95.3946 90.2701 97.3027 90.287 99.2854C90.304 101.268 91.1046 103.163 92.5161 104.556C93.9268 105.95 95.8314 106.727 97.8141 106.719C99.7976 106.711 101.696 105.917 103.095 104.512C104.494 103.107 105.279 101.206 105.28 99.2226C105.255 97.2265 104.444 95.3193 103.023 93.9161C101.602 92.513 99.6858 91.7259 97.6888 91.7259ZM116.555 92.9405H115.056L115.056 78.5353L102.169 74.0753C101.653 73.883 101.264 73.4509 101.126 72.918C100.255 69.7534 98.5278 66.8914 96.1325 64.6469C93.7382 62.4033 90.7701 60.8646 87.5556 60.2022C85.8094 59.8989 84.0065 59.6142 81.862 59.3295C78.2356 58.8677 74.5856 58.6263 70.9306 58.6076C67.7914 58.5941 64.6565 58.8288 61.5546 59.31C47.689 61.5179 41.2025 68.5969 36.0203 74.2525L35.7998 74.4931L34.5662 75.8784C34.3459 76.1165 34.0629 76.2876 33.7503 76.3723L7.8827 83.4131C6.9058 83.6783 6.04328 84.2561 5.42652 85.0585C4.8097 85.8609 4.4725 86.8429 4.46656 87.8546V95.1234C4.46656 96.4968 5.57987 97.6093 6.95246 97.6093H12.1715V97.4576C12.746 94.0635 14.898 91.1447 17.971 89.5923C21.0432 88.0402 24.6704 88.0402 27.7426 89.5923C30.8148 91.1445 32.9678 94.0633 33.5421 97.4576V97.6093H86.967V97.4576C87.5406 94.0635 89.6934 91.1447 92.7656 89.5923C95.8378 88.0402 99.465 88.0402 102.538 89.5923C105.61 91.1445 107.762 94.0633 108.337 97.4576V97.6093H116.479C116.587 97.6152 116.694 97.5754 116.773 97.5C116.852 97.4246 116.897 97.3203 116.896 97.211V93.4153C116.931 93.1907 116.779 92.9798 116.554 92.9408L116.555 92.9405ZM43.0128 75.5563C42.7332 74.9023 42.8925 74.144 43.4119 73.6585C43.583 73.4687 43.7728 73.2603 43.9812 73.0705C47.056 69.7493 53.4706 62.8601 74.1196 62.8601H75.5049C76.2073 62.8601 92.8519 62.9931 95.0912 74.5506V74.5498C95.1505 75.0268 95.004 75.5055 94.6896 75.8681C94.3744 76.2299 93.9203 76.4408 93.4399 76.4476H44.57C43.9218 76.4781 43.3152 76.1299 43.0135 75.5563L43.0128 75.5563ZM76.7951 85.6338H74.5558C73.6967 85.5423 73.0452 84.8179 73.0452 83.9545C73.0452 83.0903 73.6967 82.3659 74.5558 82.2744H76.8519C77.3289 82.2235 77.8043 82.3777 78.1601 82.698C78.5168 83.0183 78.7201 83.4749 78.7201 83.9545C78.7201 84.4332 78.5168 84.8899 78.1601 85.2101C77.8043 85.5304 77.3289 85.6846 76.8519 85.6338H76.7951ZM67.1923 90.6446C67.1923 89.7118 67.948 88.9552 68.8809 88.9552H71.1778C71.654 88.9043 72.1293 89.0585 72.486 89.3788C72.8419 89.6991 73.0452 90.1557 73.0452 90.6344C73.0452 91.114 72.8419 91.5707 72.486 91.891C72.1293 92.2112 71.654 92.3654 71.1778 92.3146H68.8622C68.4106 92.3095 67.9802 92.1239 67.6667 91.7994C67.3524 91.4749 67.1821 91.0386 67.1923 90.587V90.6446ZM61.4986 83.9639C61.4834 83.5089 61.652 83.0675 61.9663 82.7387C62.2806 82.4108 62.7136 82.2227 63.1686 82.2177H65.4842C66.3425 82.3092 66.994 83.0336 66.994 83.8969C66.994 84.7612 66.3425 85.4856 65.4842 85.5771H63.1686C62.273 85.5364 61.5647 84.8035 61.5554 83.9071L61.4986 83.9639ZM55.805 90.6446C55.805 89.7186 56.5497 88.9653 57.4749 88.9552H59.7906C60.6488 89.0467 61.3004 89.7711 61.3004 90.6344C61.3004 91.4987 60.6488 92.2231 59.7906 92.3146H57.6081C57.1531 92.3205 56.7168 92.1383 56.3999 91.8113C56.0839 91.4843 55.9169 91.042 55.9381 90.587L55.805 90.6446ZM50.1113 83.9639C50.1062 83.5173 50.2799 83.0878 50.5934 82.7701C50.9069 82.4532 51.3348 82.2744 51.7813 82.2744H54.0969C54.9552 82.3659 55.6068 83.0903 55.6068 83.9545C55.6068 84.8179 54.9552 85.5423 54.0969 85.6338H51.9711C51.5179 85.6338 51.0849 85.45 50.7697 85.1246C50.4545 84.7992 50.2859 84.3595 50.3011 83.9071L50.1113 83.9639ZM72.8832 66.2554H73.1493L70.7585 73.2394H48.5717L48.9699 72.898C54.151 68.5515 61.9889 66.3689 72.8832 66.2554ZM91.0076 72.9552C88.199 67.6793 80.2465 66.654 76.8117 66.3313H76.6787L74.3249 73.2587H91.1397L91.0076 72.9552ZM57.891 18.1119C56.9954 17.4917 55.9431 17.135 54.8552 17.0816H55.1203C54.0722 17.0816 53.2224 16.2318 53.2224 15.1837C53.2224 14.1357 54.0722 13.2859 55.1203 13.2859C57.6528 13.4342 60.0396 14.5161 61.8206 16.3225C63.5931 14.5161 65.974 13.4333 68.5005 13.2859C69.5494 13.2859 70.3984 14.1357 70.3984 15.1837C70.3984 16.2318 69.5494 17.0816 68.5005 17.0816C67.4126 17.135 66.3603 17.4917 65.4647 18.1119C64.5692 18.7331 63.8651 19.5922 63.4338 20.5928C63.1407 21.3045 62.4476 21.7697 61.6783 21.7697C60.9081 21.7697 60.215 21.3045 59.9227 20.5928C59.4906 19.5921 58.7865 18.733 57.891 18.1119Z" fill="white"/>
</svg>
