<svg width="16" height="17" viewBox="0 0 16 17" fill="none" xmlns="http://www.w3.org/2000/svg">
<path d="M15.807 15.2253L11.4779 10.7585C12.4789 9.42899 12.9512 7.7559 12.7984 6.07976C12.6457 4.40362 11.8796 2.85042 10.6562 1.73671C9.43258 0.622918 7.84367 0.032169 6.21302 0.0847777C4.5821 0.137401 3.03198 0.829241 1.87845 2.01974C0.724649 3.21025 0.053986 4.80953 0.00313655 6.49219C-0.0478641 8.17486 0.524687 9.81431 1.60414 11.0767C2.68359 12.339 4.18877 13.1296 5.8133 13.2871C7.43777 13.4447 9.05942 12.9574 10.3478 11.9246L14.6769 16.3914C14.8832 16.5737 15.1652 16.6359 15.4257 16.5563C15.6863 16.4768 15.89 16.2666 15.9671 15.9977C16.0441 15.7289 15.984 15.4381 15.8072 15.2251L15.807 15.2253ZM1.60936 6.71362C1.60936 5.39737 2.11614 4.13501 3.0183 3.20429C3.92033 2.27343 5.14378 1.75053 6.41944 1.75053C7.69525 1.75053 8.91869 2.27343 9.82072 3.20429C10.7227 4.13501 11.2295 5.39737 11.2295 6.71362C11.2295 8.03001 10.7227 9.29237 9.82072 10.2231C8.91869 11.1538 7.69525 11.6767 6.41944 11.6767C5.14378 11.6767 3.92033 11.1538 3.0183 10.2231C2.11614 9.29237 1.60936 8.03001 1.60936 6.71362Z" fill="white"/>
</svg>
