<svg width="16" height="15" viewBox="0 0 16 15" fill="none" xmlns="http://www.w3.org/2000/svg">
<g clip-path="url(#clip0_140_466)">
<path d="M14.882 4.41557C14.7143 3.80526 14.223 3.32418 13.6 3.15984C12.4618 2.85474 7.90882 2.85474 7.90882 2.85474C7.90882 2.85474 3.35595 2.85474 2.2177 3.14821C1.60669 3.31244 1.10342 3.80536 0.935745 4.41557C0.63623 5.53032 0.63623 7.84222 0.63623 7.84222C0.63623 7.84222 0.63623 10.1657 0.935745 11.2689C1.10354 11.8791 1.5947 12.3603 2.21781 12.5246C3.36793 12.8297 7.90893 12.8297 7.90893 12.8297C7.90893 12.8297 12.4618 12.8297 13.6 12.5362C14.2232 12.372 14.7143 11.8908 14.8821 11.2806C15.1816 10.1657 15.1816 7.85395 15.1816 7.85395C15.1816 7.85395 15.1936 5.53032 14.882 4.41557Z" fill="white"/>
<path d="M6.46021 9.97819L10.2463 7.84237L6.46021 5.70654V9.97819Z" fill="url(#paint0_linear_140_466)"/>
</g>
<defs>
<linearGradient id="paint0_linear_140_466" x1="8.35324" y1="5.70654" x2="8.35324" y2="9.97819" gradientUnits="userSpaceOnUse">
<stop stop-color="#4732BA"/>
<stop offset="1" stop-color="#150473"/>
</linearGradient>
<clipPath id="clip0_140_466">
<rect width="14.5455" height="14.2466" fill="white" transform="translate(0.63623 0.712158)"/>
</clipPath>
</defs>
</svg>
