<svg width="238" height="49" viewBox="0 0 238 49" fill="none" xmlns="http://www.w3.org/2000/svg">
<g clip-path="url(#clip0_140_682)">
<mask id="mask0_140_682" style="mask-type:luminance" maskUnits="userSpaceOnUse" x="0" y="0" width="42" height="49">
<path d="M8.0494 6.14179C7.48343 8.1122 10.46 15.9938 11.2775 17.545C9.41191 17.545 6.30957 14.4217 5.28244 13.0382C4.50686 11.9692 1.78182 6.91738 2.80895 5.0937C3.54261 4.44389 6.56111 4.77928 7.73497 4.75831C7.75593 4.94697 7.77689 5.30332 7.81882 5.47101L8.0494 6.14179ZM30.1012 17.5869C30.3527 16.7065 30.9816 15.5536 31.3379 14.5894C31.7362 13.5623 32.0297 12.6609 32.3441 11.529C32.9729 9.24413 33.2035 7.2318 33.6018 4.80024C34.6709 4.69543 37.7522 4.50677 38.423 5.0937C39.4501 6.93834 36.7251 11.9901 35.9495 13.0382C34.7966 14.5475 32.407 16.9581 30.1012 17.5869ZM34.0001 45.7176L33.9791 37.7731L30.9187 37.7521C30.9187 37.5006 30.9397 36.9556 30.9397 36.746C30.8558 35.9075 31.1073 36.2429 30.6252 36.1381C30.227 35.7608 29.5771 35.5302 29.0531 35.2367C28.55 34.9433 28.0469 34.6288 27.5648 34.2935C24.7979 32.344 22.1147 28.8434 22.1567 24.9235C22.6598 24.5882 23.5192 24.4205 24.1061 24.127C24.735 23.8126 25.3009 23.4353 25.7831 23.037C26.349 22.5758 26.7054 22.1356 27.1875 21.6745C27.8373 21.0247 27.8583 20.5845 28.6967 20.3119C35.8237 18.4883 40.3305 11.7595 41.0432 4.88408C41.3367 2.03328 38.5697 2.76695 34.0001 2.76695C33.6437 2.4106 33.8324 3.14426 33.7485 2.18002L33.7905 0.419227C33.6647 0.0628767 33.9372 0.1048 32.386 0.125762H8.34286C7.35766 0.146724 7.83978 -8.62032e-06 7.54631 0.377303L7.65112 2.72502C3.24915 2.80887 7.36415e-05 1.9704 0.125844 4.59062C0.461233 11.2565 5.84841 19.1381 12.8916 20.3539C13.2479 20.5845 13.6881 21.1504 14.0025 21.5277C14.4637 22.0727 14.7781 22.3452 15.3231 22.8064C16.0149 23.4143 17.5032 24.5043 18.5722 24.5253C18.7609 24.693 18.2997 24.693 19.1382 24.7978L18.8866 26.5166C18.2368 30.5413 15.2393 34.1467 11.529 35.7189L10.7535 36.159C10.2923 36.159 10.481 36.0333 10.2923 36.4316V37.7312C9.81018 37.7312 9.3071 37.7312 8.82498 37.7312L7.71401 37.7731C7.37862 37.857 7.52535 37.7941 7.3367 37.9198V45.2774V45.7595L5.89033 45.7176V48.0234H8.67825H8.95075H14.5266H35.3836L35.3416 45.6967L34.0001 45.7176Z" fill="white"/>
</mask>
<g mask="url(#mask0_140_682)">
<path d="M41.3576 0H0V48.0444H41.3576V0Z" fill="url(#paint0_linear_140_682)"/>
</g>
<path d="M235.925 47.8137H232.969L229.741 39.5338C229.783 40.016 229.804 40.519 229.804 41.0431C229.825 41.5671 229.825 42.1541 229.825 42.8248V47.8347H227.414V35.9494H230.37L233.598 44.2293C233.577 43.7262 233.556 43.2022 233.535 42.6572C233.514 42.1121 233.514 41.5252 233.514 40.8544V35.9284H235.925V47.8137ZM216.745 39.7644C216.745 38.3809 217.08 37.3748 217.772 36.704C218.464 36.0332 219.575 35.6978 221.105 35.6978C222.635 35.6978 223.767 36.0332 224.459 36.683C225.15 37.3329 225.507 38.36 225.507 39.7644V43.9777C225.507 45.3612 225.15 46.3674 224.459 47.0382C223.767 47.7089 222.656 48.0443 221.105 48.0443C219.575 48.0443 218.464 47.7089 217.772 47.0382C217.08 46.3674 216.745 45.3612 216.745 43.9777V39.7644ZM222.949 39.7015C222.949 39.0517 222.803 38.5696 222.509 38.2552C222.216 37.9408 221.755 37.794 221.105 37.794C220.476 37.794 220.015 37.9407 219.742 38.2342C219.449 38.5277 219.302 39.0098 219.302 39.6806V44.0616C219.302 44.7114 219.449 45.1935 219.721 45.5079C220.015 45.8224 220.476 45.9691 221.105 45.9691C221.755 45.9691 222.216 45.8224 222.509 45.5079C222.803 45.1935 222.949 44.7114 222.949 44.0616V39.7015ZM212.259 35.9284H214.816V47.8137H212.259V35.9284ZM205.698 38.0036H203.057V35.9075H210.896V38.0036H208.255V47.8137H205.698V38.0036ZM197.837 43.4956H200.08L198.99 38.1294H198.948L197.837 43.4956ZM200.562 45.5499H197.355L196.873 47.8137H194.232L197.334 35.9284H200.562L203.686 47.8137H201.023L200.562 45.5499ZM184.967 47.8137V35.9284H189.033C189.788 35.9284 190.438 35.9913 190.983 36.0961C191.549 36.2009 192.01 36.4105 192.387 36.725C192.764 37.0394 193.037 37.4586 193.226 38.0246C193.414 38.5696 193.519 39.2823 193.519 40.1417V43.5795C193.519 44.4389 193.414 45.1516 193.226 45.7176C193.037 46.2626 192.764 46.7028 192.387 47.0172C192.01 47.3316 191.549 47.5412 190.983 47.667C190.417 47.7928 189.767 47.8347 189.033 47.8347H184.967V47.8137ZM187.524 38.0036V45.7176H188.97C189.369 45.7176 189.704 45.6756 189.956 45.5918C190.207 45.508 190.417 45.3822 190.564 45.2145C190.71 45.0468 190.815 44.8372 190.857 44.5856C190.92 44.3341 190.941 44.0616 190.941 43.7472V39.8273C190.941 39.3871 190.899 39.0517 190.815 38.8002C190.731 38.5486 190.605 38.36 190.438 38.2552C190.27 38.1294 190.06 38.0665 189.83 38.0456C189.578 38.0246 189.306 38.0036 188.97 38.0036H187.524ZM182.766 47.8137H179.81L176.582 39.5338C176.624 40.016 176.645 40.519 176.645 41.0431C176.666 41.5671 176.666 42.1541 176.666 42.8248V47.8347H174.255V35.9494H177.211L180.439 44.2293C180.418 43.7262 180.397 43.2022 180.376 42.6572C180.355 42.1121 180.355 41.5252 180.355 40.8544V35.9284H182.766V47.8137ZM166.227 35.9284V44.1454C166.227 44.7743 166.353 45.2354 166.604 45.5079C166.856 45.7805 167.296 45.9272 167.925 45.9272C168.554 45.9272 168.973 45.7805 169.224 45.5079C169.476 45.2354 169.602 44.7743 169.602 44.1454V35.9284H172.159V44.0197C172.159 44.7952 172.075 45.4241 171.887 45.9481C171.698 46.4512 171.425 46.8705 171.09 47.1849C170.734 47.4993 170.293 47.7089 169.769 47.8347C169.245 47.9605 168.617 48.0234 167.925 48.0234C167.233 48.0234 166.604 47.9605 166.08 47.8347C165.535 47.7089 165.095 47.4784 164.739 47.1849C164.382 46.8705 164.11 46.4722 163.942 45.9481C163.753 45.4451 163.67 44.7952 163.67 44.0197V35.9284H166.227ZM153.084 39.7644C153.084 38.3809 153.419 37.3748 154.111 36.704C154.803 36.0332 155.914 35.6978 157.444 35.6978C158.974 35.6978 160.106 36.0332 160.798 36.683C161.49 37.3329 161.846 38.36 161.846 39.7644V43.9777C161.846 45.3612 161.49 46.3674 160.798 47.0382C160.106 47.7089 158.995 48.0443 157.444 48.0443C155.914 48.0443 154.803 47.7089 154.111 47.0382C153.419 46.3674 153.084 45.3612 153.084 43.9777V39.7644ZM159.289 39.7015C159.289 39.0517 159.142 38.5696 158.869 38.2552C158.576 37.9408 158.115 37.794 157.465 37.794C156.836 37.794 156.375 37.9407 156.102 38.2342C155.809 38.5277 155.662 39.0098 155.662 39.6806V44.0616C155.662 44.7114 155.809 45.1935 156.081 45.5079C156.375 45.8224 156.836 45.9691 157.465 45.9691C158.115 45.9691 158.576 45.8224 158.869 45.5079C159.163 45.1935 159.289 44.7114 159.289 44.0616V39.7015ZM144.783 47.8137V35.9284H151.7V38.0246H147.34V40.7915H151.051V42.8039H147.34V47.8347H144.783V47.8137ZM136.105 44.2922C136.105 44.0616 136.084 43.8729 136.021 43.7052C135.958 43.5375 135.853 43.4118 135.665 43.286C135.497 43.1602 135.245 43.0554 134.931 42.9716C134.617 42.8877 134.197 42.7829 133.673 42.6781C133.086 42.5733 132.562 42.4475 132.122 42.2798C131.682 42.1121 131.305 41.9025 130.99 41.63C130.676 41.3575 130.466 41.0221 130.298 40.6239C130.152 40.2256 130.068 39.7225 130.068 39.1356C130.068 38.0665 130.403 37.228 131.074 36.6202C131.745 36.0123 132.814 35.6978 134.26 35.6978C134.994 35.6978 135.644 35.7607 136.168 35.8865C136.692 36.0123 137.132 36.2219 137.467 36.4944C137.803 36.7669 138.054 37.1442 138.201 37.5844C138.348 38.0246 138.432 38.5696 138.432 39.1985H135.874C135.874 38.6954 135.748 38.3181 135.497 38.1084C135.245 37.8988 134.826 37.7731 134.239 37.7731C133.652 37.7731 133.233 37.8988 133.002 38.1294C132.772 38.36 132.646 38.6954 132.646 39.1565C132.646 39.429 132.667 39.6596 132.73 39.8483C132.793 40.0369 132.898 40.2046 133.065 40.3514C133.233 40.4981 133.443 40.6029 133.715 40.7077C133.988 40.7916 134.365 40.8754 134.805 40.9592C135.539 41.085 136.168 41.2317 136.65 41.3994C137.132 41.5671 137.53 41.7768 137.824 42.0493C138.117 42.3008 138.327 42.6152 138.432 42.9716C138.557 43.3279 138.599 43.7681 138.599 44.2712C138.599 44.9839 138.494 45.5708 138.306 46.053C138.096 46.5351 137.824 46.9334 137.446 47.2268C137.069 47.5203 136.608 47.7299 136.084 47.8766C135.539 48.0024 134.952 48.0653 134.281 48.0653C133.506 48.0653 132.835 48.0024 132.29 47.8557C131.745 47.7089 131.284 47.4993 130.927 47.1849C130.571 46.8705 130.319 46.4932 130.152 46.011C129.984 45.5289 129.9 44.9629 129.9 44.2922H132.457C132.457 44.921 132.604 45.3403 132.898 45.5918C133.191 45.8433 133.652 45.9691 134.281 45.9691C134.931 45.9691 135.413 45.8433 135.665 45.6128C135.958 45.3403 136.105 44.9001 136.105 44.2922ZM128.202 47.8137H125.247L122.019 39.5338C122.06 40.016 122.081 40.519 122.081 41.0431C122.102 41.5671 122.102 42.1541 122.102 42.8248V47.8347H119.692V35.9494H122.647L125.875 44.2293C125.855 43.7262 125.834 43.2022 125.813 42.6572C125.792 42.1121 125.771 41.5043 125.771 40.8544V35.9284H128.181V47.8137H128.202ZM109.022 39.7644C109.022 38.3809 109.358 37.3748 110.049 36.704C110.741 36.0332 111.852 35.6978 113.382 35.6978C114.912 35.6978 116.044 36.0332 116.736 36.683C117.428 37.3329 117.784 38.36 117.784 39.7644V43.9777C117.784 45.3612 117.428 46.3674 116.736 47.0382C116.044 47.7089 114.933 48.0443 113.382 48.0443C111.852 48.0443 110.741 47.7089 110.049 47.0382C109.358 46.3674 109.022 45.3612 109.022 43.9777V39.7644ZM115.227 39.7015C115.227 39.0517 115.08 38.5696 114.808 38.2552C114.514 37.9408 114.053 37.794 113.403 37.794C112.774 37.794 112.334 37.9407 112.041 38.2342C111.747 38.5277 111.601 39.0098 111.601 39.6806V44.0616C111.601 44.7114 111.747 45.1935 112.041 45.5079C112.334 45.8224 112.795 45.9691 113.424 45.9691C114.074 45.9691 114.535 45.8224 114.829 45.5079C115.122 45.1935 115.248 44.7114 115.248 44.0616V39.7015H115.227ZM104.536 35.9284H107.094V47.8137H104.536V35.9284ZM94.4747 35.9284H98.5623C99.275 35.9284 99.8829 35.9703 100.428 36.0752C100.952 36.18 101.392 36.3686 101.748 36.6621C102.105 36.9555 102.377 37.3329 102.545 37.8359C102.713 38.339 102.818 38.9888 102.818 39.7854C102.818 40.54 102.734 41.1689 102.566 41.651C102.398 42.1541 102.126 42.5314 101.79 42.8248C101.434 43.1183 100.994 43.3279 100.47 43.4327C99.9458 43.5585 99.3169 43.6004 98.6042 43.6004H97.053V47.7718H94.4957V35.9284H94.4747ZM98.5623 41.63C99.1492 41.63 99.5685 41.5043 99.841 41.2737C100.113 41.0221 100.239 40.54 100.239 39.8273C100.239 39.1356 100.113 38.6535 99.841 38.4019C99.5685 38.1504 99.1492 38.0246 98.5623 38.0246H97.0321V41.651H98.5623V41.63ZM89.7793 42.3008L89.926 38.6535L87.6831 47.7928H85.7337L83.4908 38.6535L83.6375 42.3218V47.8137H81.143V35.9284H84.7066L86.677 44.3551H86.7398L88.7103 35.9284H92.2738V47.8137H89.7793V42.3008ZM73.9741 43.4956H76.217L75.127 38.1294H75.0851L73.9741 43.4956ZM76.6992 45.5499H73.492L73.0099 47.8137H70.3687L73.471 35.9284H76.6992L79.8225 47.8137H77.1603L76.6992 45.5499ZM69.111 47.8137H66.5537V42.7829H63.2836V47.8137H60.7263V35.9284H63.2836V40.7706H66.5537V35.9284H69.111V47.8137ZM54.6893 45.9481C55.2762 45.9481 55.6955 45.8014 55.968 45.5289C56.2405 45.2564 56.3662 44.7533 56.3662 44.0406H58.8816C58.8816 45.4241 58.5463 46.4512 57.8964 47.0801C57.2466 47.7089 56.1776 48.0234 54.6893 48.0234C53.201 48.0234 52.132 47.688 51.4402 46.9962C50.7485 46.3045 50.4131 45.2354 50.4131 43.7681V39.9531C50.4131 38.4438 50.7694 37.3538 51.4821 36.683C52.1948 36.0123 53.2639 35.6769 54.6893 35.6769C56.1566 35.6769 57.2257 35.9913 57.8964 36.6202C58.5463 37.249 58.8816 38.2552 58.8816 39.6387H56.3662C56.3662 38.9679 56.2405 38.4858 55.968 38.1923C55.6955 37.8988 55.2762 37.7521 54.6893 37.7521C54.1233 37.7521 53.7041 37.8779 53.4106 38.1504C53.1172 38.4229 52.9704 38.884 52.9704 39.5338V44.1035C52.9704 44.7533 53.1172 45.2354 53.4106 45.487C53.725 45.8224 54.1443 45.9481 54.6893 45.9481Z" fill="#2C4257"/>
<path d="M49.8262 30.0382H237.979V31.799H49.8262V30.0382ZM223.243 1.27869V18.7189C223.243 20.0604 223.515 21.0456 224.06 21.6326C224.605 22.2195 225.528 22.5339 226.848 22.5339C228.169 22.5339 229.091 22.2405 229.615 21.6326C230.139 21.0456 230.412 20.0604 230.412 18.7189V1.27869H235.841V18.4464C235.841 20.0814 235.652 21.4439 235.254 22.5339C234.856 23.6239 234.29 24.5043 233.535 25.1541C232.781 25.8249 231.837 26.2861 230.726 26.5586C229.594 26.8311 228.295 26.9569 226.827 26.9569C225.36 26.9569 224.039 26.8311 222.908 26.5586C221.776 26.2861 220.832 25.8249 220.078 25.1541C219.323 24.5043 218.757 23.6239 218.359 22.5339C217.961 21.4439 217.772 20.0814 217.772 18.4464V1.27869H223.243ZM195.783 26.5167V1.27869H204.398C205.97 1.27869 207.354 1.40446 208.549 1.63504C209.744 1.86562 210.729 2.30581 211.525 2.97659C212.322 3.64737 212.909 4.54872 213.307 5.72258C213.705 6.89644 213.915 8.38473 213.915 10.2294V17.5241C213.915 19.3687 213.705 20.8779 213.307 22.0518C212.909 23.2257 212.301 24.148 211.525 24.8188C210.729 25.4686 209.744 25.9297 208.549 26.1813C207.354 26.4328 205.97 26.5586 204.398 26.5586H195.783V26.5167ZM201.212 5.70162V22.0937H204.273C205.132 22.0937 205.824 22.0099 206.369 21.8212C206.914 21.6326 207.333 21.3601 207.647 21.0037C207.962 20.6474 208.171 20.2072 208.297 19.6831C208.423 19.1591 208.465 18.5721 208.465 17.9014V9.57955C208.465 8.65723 208.381 7.92357 208.192 7.37856C208.004 6.85452 207.752 6.45624 207.396 6.2047C207.039 5.95316 206.62 5.80643 206.096 5.76451C205.572 5.72258 204.964 5.68066 204.273 5.68066H201.212V5.70162ZM180.586 17.3564H185.365L183.038 5.97412H182.954L180.586 17.3564ZM186.371 21.6955H179.58L178.573 26.5167H172.977L179.538 1.27869H186.413L193.058 26.5167H187.419L186.371 21.6955ZM170.273 26.5167H164.026L157.192 8.92973C157.276 9.9359 157.318 11.0049 157.339 12.1159C157.36 13.2269 157.381 14.4846 157.381 15.889V26.5376H152.245V1.27869H158.492L165.326 18.8656C165.284 17.7756 165.221 16.6646 165.2 15.5327C165.158 14.4008 165.137 13.1221 165.137 11.7176V1.27869H170.273V26.5167ZM127.07 1.27869H132.499V22.0937H140.192V26.5167H127.07V1.27869ZM116.988 1.27869H122.417V26.5167H116.988V1.27869ZM107.031 14.82L107.345 7.0851L102.566 26.4957H98.4156L93.6363 7.0851L93.9507 14.8619V26.5167H88.6683V1.27869H96.2355L100.428 19.18H100.554L104.746 1.27869H112.313V26.5167H107.031V14.82ZM73.492 17.3564H78.2713L75.9445 5.97412H75.8607L73.492 17.3564ZM79.2775 21.6955H72.4859L71.4797 26.5167H65.8829L72.4439 1.27869H79.3194L85.9433 26.5167H80.3046L79.2775 21.6955ZM56.0099 5.70162H50.4131V1.27869H67.0358V5.70162H61.439V26.5167H56.0099V5.70162Z" fill="#7F4B1E"/>
</g>
<defs>
<linearGradient id="paint0_linear_140_682" x1="0.127448" y1="24.019" x2="41.0868" y2="24.019" gradientUnits="userSpaceOnUse">
<stop stop-color="#C9A34A"/>
<stop offset="0.23" stop-color="#C89A2C"/>
<stop offset="0.41" stop-color="#DAB562"/>
<stop offset="0.59" stop-color="#B6903B"/>
<stop offset="0.77" stop-color="#CBA147"/>
<stop offset="1" stop-color="#FFE083"/>
</linearGradient>
<clipPath id="clip0_140_682">
<rect width="238" height="48.0444" fill="white"/>
</clipPath>
</defs>
</svg>
