<svg width="86" height="103" viewBox="0 0 86 103" fill="none" xmlns="http://www.w3.org/2000/svg">
<path d="M40.4692 1.87143C43.1956 1.80104 45.9358 1.80962 48.6296 2.25945C53.9983 3.01144 59.2022 4.88972 63.8532 7.66593C69.8881 11.2903 74.9924 16.4667 78.4502 22.6046C82.806 30.176 84.5417 39.1983 83.3863 47.8497C82.624 53.8657 80.4367 59.6876 77.1076 64.7542C71.7166 72.9781 63.3073 79.2069 53.8094 81.8029C43.5562 84.7164 32.1663 83.403 22.8728 78.1717C12.6591 72.5609 5.00346 62.4003 2.68394 50.9538C1.60745 46.2805 1.55594 41.4096 2.19634 36.671C2.77493 33.4313 3.52693 30.1966 4.85065 27.1715C8.75657 17.605 16.4706 9.68327 25.8963 5.46144C27.9617 4.49655 30.1421 3.81151 32.3226 3.1591C34.9975 2.49981 37.7222 2.0517 40.4692 1.87143ZM38.7661 3.64326C37.2432 3.83383 35.7152 4.02269 34.2232 4.39354C32.8308 4.74893 31.4126 5.02364 30.0769 5.57132C27.1547 6.55338 24.3631 7.90801 21.774 9.57682C13.569 14.7206 7.4174 23.0286 4.88156 32.3754C4.4695 34.1232 3.96302 35.8607 3.83597 37.66C3.36898 41.0731 3.41877 44.5498 3.86001 47.9647C5.02062 56.4256 9.04673 64.4726 15.1657 70.4388C18.445 73.7644 22.387 76.4016 26.6156 78.3657C32.4153 80.9925 38.8519 82.1772 45.2044 81.8372C46.0577 81.6587 46.935 81.7359 47.7883 81.5745C52.1681 81.0234 56.4637 79.7546 60.4109 77.7682C69.7353 73.1875 77.0801 64.7628 80.3182 54.8889C80.6719 53.7764 81.132 52.6965 81.4084 51.5599C81.805 49.8619 82.0471 48.1296 82.1742 46.3921C82.1862 45.3671 82.1948 44.3421 82.3149 43.3223C82.4042 42.0037 82.1381 40.6937 82.169 39.3717C81.8188 35.9156 81.1475 32.4698 79.8976 29.2197C76.9067 21.0027 71.0436 13.8776 63.5974 9.30384C56.2612 4.71975 47.3608 2.71957 38.7661 3.64326Z" fill="#FEFEFE"/>
<path d="M11.9838 34.4974C12.9745 34.0991 14.1008 35.5121 13.2955 36.3156C12.7891 37.0212 11.5804 36.8701 11.2559 36.0649C10.8558 35.4486 11.4516 34.779 11.9838 34.4974Z" fill="#FEFEFE"/>
<path d="M17.2705 35.1413C18.7557 34.391 20.5927 34.4597 22.071 35.1928C23.12 35.6495 24.0471 36.5405 24.3098 37.6823C30.5593 37.7441 36.8122 37.708 43.0616 37.7252C43.0479 38.1922 43.0479 38.6609 43.0651 39.1279C42.7612 39.145 42.4573 39.1571 42.1534 39.1725C42.2015 42.1633 42.0847 45.149 42.071 48.1381C41.3533 48.1742 40.6357 48.1639 39.918 48.1484C39.9661 46.5672 39.9575 44.9859 39.9764 43.4064C39.2553 43.4132 38.5342 43.3875 37.8148 43.4046C37.3856 43.8699 37.0577 44.4811 36.407 44.6734C35.4455 45.0923 34.4566 44.0948 34.472 43.1505C34.3364 42.3299 35.1639 41.6672 35.9228 41.6637C37.3238 41.638 38.7368 41.7719 40.1326 41.583C40.1206 40.7761 40.1464 39.9674 40.1944 39.1622C37.9951 39.1845 35.794 39.1536 33.5947 39.1966C33.5878 42.2063 33.4316 45.2142 33.4986 48.2274C32.7723 48.1999 32.0478 48.2033 31.3216 48.2257C31.3061 47.4239 31.3216 46.6221 31.3387 45.8203C30.2725 46.3646 28.9316 46.4985 27.8569 45.9079C26.6465 45.2074 25.7846 43.9764 25.4962 42.6114C26.3151 42.3591 27.2233 41.8303 27.383 40.91C27.5135 40.3881 27.2319 39.8747 26.8679 39.5193C26.2894 38.86 25.3279 39.2463 24.569 39.1485C24.6188 40.1065 24.6703 41.0714 24.5708 42.0294C23.666 41.9865 22.7612 42.0449 21.8564 42.0483C21.3087 42.0741 20.7129 41.9573 20.2339 42.2921C20.2579 42.5084 20.2871 42.7248 20.3163 42.9411C21.7722 43.3154 23.3689 43.1694 24.7218 43.9008C25.0583 44.0777 25.4017 44.3266 25.5374 44.6975C25.6884 46.0178 24.9176 47.4033 23.6745 47.9115C21.9061 48.6824 19.8339 48.1656 18.3093 47.0839C18.632 46.6633 19.0029 46.2804 19.3377 45.8684C20.5052 46.3199 21.901 46.8006 23.0685 46.0899C23.4754 45.9422 23.2985 45.4649 23.2985 45.1439C21.9628 44.7284 20.4485 44.8314 19.2226 44.0656C18.584 43.6605 17.9865 42.9102 18.2801 42.117C18.2921 41.3581 18.8363 40.7349 19.5128 40.4499C20.3232 40.0172 21.2657 40.1614 22.1465 40.1546C22.1534 39.8249 22.1585 39.4936 22.1671 39.1656C20.4519 39.1433 18.7368 39.1639 17.0233 39.1536C17.0525 42.1702 17.0096 45.1868 17.0302 48.2016C16.3829 48.2171 15.7356 48.2102 15.0901 48.2411C15.018 45.2383 15.0523 42.232 15.0386 39.2275C14.5149 39.0231 13.8866 39.2086 13.3217 39.133C13.3148 40.043 13.3784 40.9564 13.2839 41.8629C11.7095 41.8543 10.1043 41.765 8.55047 42.0535C8.523 42.3676 8.3805 42.8999 8.8286 42.9686C10.1266 43.1128 11.5482 42.6664 12.7586 43.3119C13.6822 43.8047 13.8076 44.9704 13.7973 45.9079C13.8299 46.5929 13.411 47.1835 13.0109 47.6986C12.4667 48.3304 11.3696 48.0677 10.9352 48.818C10.9953 49.2421 11.3988 49.4773 11.6992 49.7314C11.2975 50.1726 10.9558 50.6619 10.5421 51.0929C9.71795 50.4954 9.02433 49.7142 8.59339 48.7871C7.75898 48.7304 6.87135 48.2943 6.51595 47.5046C6.39406 46.9397 6.29619 46.1997 6.81469 45.798C7.26967 45.3276 8.02167 45.4031 8.58824 45.6023C9.17198 45.7843 9.46729 46.392 10.0236 46.6204C10.8271 46.732 11.4606 46.0761 11.7061 45.3688C10.7189 44.3489 9.19602 44.6648 7.94612 44.3352C7.14777 44.1893 6.56231 43.4373 6.52282 42.6406C6.50909 42.0638 6.44041 41.3478 6.9675 40.9632C8.01652 39.9314 9.58232 40.0086 10.9455 39.9898C10.9095 39.7133 10.985 39.4043 10.8459 39.1519C9.44153 39.1502 8.0354 39.1347 6.63099 39.1622C6.6327 38.6763 6.63099 38.1905 6.62584 37.7063C9.45183 37.6805 12.2795 37.7286 15.1038 37.6702C15.3957 36.5594 16.2387 35.6254 17.2705 35.1413ZM17.1675 37.7235C18.826 37.7647 20.4846 37.7046 22.1431 37.7029C21.9388 36.6332 20.8125 36.0615 19.7978 36.1147C18.699 36.0066 17.3821 36.5182 17.1675 37.7235ZM29.2252 39.176C29.4278 40.1305 29.6184 41.1778 29.2132 42.1067C28.978 42.7127 28.4149 43.0853 27.9788 43.5334C28.238 43.9128 28.5505 44.3919 29.0673 44.3884C29.9326 44.5138 30.7842 43.8888 31.0589 43.0819C31.4486 41.8114 31.2889 40.4722 31.3147 39.1656C30.6176 39.1691 29.9223 39.1725 29.2252 39.176Z" fill="#FEFEFE"/>
<path d="M56.4054 34.8202C56.7797 35.0794 57.1763 35.3009 57.5849 35.5018C57.1368 36.3534 56.2526 36.8753 55.3564 37.1397C53.9863 37.6119 52.3587 36.7809 51.8643 35.4348C52.2214 35.2322 52.618 34.9696 53.0352 34.9678C53.4301 35.2391 53.8078 35.5911 54.3091 35.6357C55.104 35.7954 55.8663 35.3747 56.4054 34.8202Z" fill="#FEFEFE"/>
<path d="M45.3686 37.6805C47.2263 37.0024 49.6591 38.3347 49.7552 40.3984C49.6848 41.3032 49.5767 42.3368 48.8453 42.9686C49.2127 43.3274 49.6934 43.6656 49.7707 44.2116C49.9149 45.0065 50.0952 45.9285 49.4943 46.5895C48.1774 48.5124 44.984 48.4454 43.6191 46.6187C43.31 46.2186 43.2259 45.7036 43.1006 45.2263C43.5315 44.9533 43.9607 44.6769 44.3934 44.4039C44.6149 44.9962 44.881 45.6555 45.4853 45.9525C45.9987 46.265 46.7507 46.2684 47.149 45.7671C47.719 45.2486 47.525 44.4176 47.5044 43.7394C47.1851 42.893 46.124 43.2776 45.4407 43.1746C45.4579 42.7814 45.4768 42.39 45.4922 41.9985C46.4932 42.1908 47.3173 41.2894 47.537 40.3967C47.4924 39.8455 46.9344 39.4764 46.4056 39.5605C45.6742 39.3974 45.3806 40.3537 44.7145 40.3761C44.3367 40.1906 44.026 39.8936 43.6895 39.6464C43.765 38.7124 44.4672 37.9123 45.3686 37.6805Z" fill="#FEFEFE"/>
<path d="M50.2176 37.6942C59.9129 37.6805 69.6082 37.6754 79.3017 37.6977C79.2811 38.1801 79.2811 38.6643 79.2966 39.1467C78.73 39.1553 78.1651 39.1399 77.6003 39.1364C77.6295 42.1479 77.5848 45.1576 77.6209 48.169C76.9204 48.1862 76.2165 48.2205 75.5211 48.1312C75.5623 46.6032 75.4576 45.0751 75.4456 43.5471C75.2361 43.5935 75.037 43.6673 74.8498 43.7703C73.8506 44.3197 72.7569 44.682 71.7921 45.2949C71.483 44.7695 71.2461 44.2081 70.9576 43.6707C71.3113 43.4493 71.744 43.3085 72.017 42.9805C71.7543 42.6063 71.277 42.3264 70.8117 42.4603C70.0906 42.6818 69.4537 43.3892 69.5515 44.1806C69.555 45.252 70.5473 45.8787 71.2083 46.5757C70.9542 47.1148 70.6744 47.6402 70.3928 48.1655C69.1137 47.4032 68.0269 46.2272 67.6011 44.7781C67.4071 43.772 67.4346 42.644 68.0544 41.7804C68.621 40.7675 69.8211 40.2352 70.9559 40.3211C72.1766 40.3297 73.2651 40.9649 74.2214 41.6654C74.5871 41.4937 74.9614 41.3392 75.3426 41.2053C75.3357 40.5237 75.3288 39.8421 75.3786 39.1622C72.3415 39.1227 69.3026 39.157 66.2654 39.1484C66.3117 42.1547 66.2156 45.1627 66.286 48.1673C65.6027 48.2119 64.9159 48.193 64.2326 48.1844C64.2343 47.3397 64.2566 46.4933 64.2807 45.6486C62.8711 46.0194 61.192 46.3697 59.9215 45.4305C58.9102 44.7798 58.7866 43.4767 58.6218 42.3951C59.9455 42.4226 60.8812 40.558 59.9215 39.5948C59.2365 38.8222 58.1188 39.2515 57.226 39.0935C57.2088 42.1152 57.214 45.1404 57.238 48.1638C56.565 48.1484 55.892 48.1518 55.2206 48.1072C55.2928 45.1198 55.2103 42.1307 55.2619 39.1416C54.7399 39.1399 54.218 39.1347 53.6961 39.1261C53.7527 42.1324 53.6754 45.1404 53.7373 48.1484C53.0127 48.2067 52.2848 48.1861 51.5585 48.1724C51.5929 46.519 51.6117 44.864 51.5688 43.2106C51.04 43.2415 50.5112 43.2535 49.9824 43.2467C49.9859 42.5925 49.9859 41.9401 50.0168 41.2877C50.5456 41.2894 51.0744 41.2894 51.6049 41.2843C51.5929 40.5683 51.5757 39.8541 51.6014 39.1381C51.1379 39.1467 50.676 39.1587 50.2142 39.1605C50.2262 38.6712 50.2331 38.1818 50.2176 37.6942ZM62.0178 39.1296C62.253 39.9193 62.205 40.7623 62.1517 41.5744C62.0315 42.3676 61.4753 42.9479 60.8263 43.36C61.3156 44.6047 63.4875 44.6751 63.9699 43.3806C64.5004 42.0294 64.2051 40.5477 64.2772 39.1347C63.5235 39.1433 62.7715 39.1416 62.0178 39.1296Z" fill="#FEFEFE"/>
<path d="M38.935 0.190575C40.2192 0.0944288 41.5138 0.111598 42.7997 0C44.3466 0.140785 45.909 0.0532235 47.4456 0.30904C53.4084 0.963174 59.232 2.8672 64.3947 5.91983C67.0954 7.47705 69.5797 9.39653 71.9027 11.4688C72.8813 12.4972 73.9784 13.4158 74.854 14.5369C77.0551 16.9216 78.8544 19.6549 80.4528 22.4723C80.8683 23.3806 81.416 24.2219 81.7473 25.1696C82.8702 27.3947 83.5415 29.8035 84.2505 32.1814C84.7862 34.494 85.1708 36.841 85.4111 39.2017C85.5073 41.4628 85.497 43.7257 85.4111 45.9868C85.145 48.4386 84.7708 50.8851 84.1681 53.2802C83.7303 54.4751 83.502 55.7371 83.0161 56.9148C80.6931 63.3875 76.7426 69.2627 71.6451 73.8794C70.6047 74.8495 69.4922 75.7371 68.3865 76.6316C67.1194 77.4231 65.9743 78.412 64.6265 79.073C62.2211 80.577 59.6063 81.7136 56.9554 82.7059C55.8223 83.0407 54.7046 83.4219 53.5715 83.755C50.9807 84.3164 48.3744 84.9001 45.715 84.9602C44.065 85.1576 42.3962 85.1319 40.7394 85.0546C39.8123 84.8984 38.8612 85.01 37.9392 84.8194C37.3434 84.7147 36.7322 84.7542 36.1416 84.6151C34.3011 84.1996 32.4108 83.9678 30.6201 83.3549C28.6405 82.6973 26.6266 82.0879 24.7758 81.1092C23.1825 80.4843 21.7472 79.54 20.2449 78.7365C17.7949 77.1157 15.3896 75.404 13.295 73.3334C8.2954 68.6326 4.44957 62.7042 2.27084 56.1955C2.03219 55.6031 1.81758 55.0005 1.69396 54.3721C0.39428 49.9666 -0.161992 45.3396 0.0406012 40.7503C0.0766559 38.5115 0.495577 36.3019 0.842388 34.0974C1.77981 29.8481 3.24431 25.6967 5.41103 21.9126C5.8557 20.9563 6.53559 20.1425 7.0249 19.212C9.52984 15.6134 12.3988 12.2157 15.9012 9.55105C17.479 8.22561 19.1942 7.08045 20.9489 6.00911C21.7661 5.65371 22.4511 5.05795 23.289 4.75235C25.9793 3.38055 28.8002 2.23882 31.7344 1.50571C34.0831 0.820672 36.5176 0.521934 38.935 0.190575ZM40.4699 1.87141C37.7229 2.05168 34.9982 2.49979 32.3232 3.15907C30.1428 3.81149 27.9624 4.49653 25.8969 5.46142C16.4712 9.68325 8.75724 17.605 4.85132 27.1715C3.5276 30.1966 2.7756 33.4312 2.19701 36.671C1.55661 41.4096 1.60812 46.2804 2.68461 50.9538C5.00413 62.4003 12.6597 72.5608 22.8735 78.1716C32.167 83.403 43.5569 84.7164 53.8101 81.8028C63.3079 79.2069 71.7172 72.978 77.1083 64.7542C80.4373 59.6876 82.6246 53.8656 83.3869 47.8497C84.5424 39.1983 82.8066 30.176 78.4509 22.6045C74.9931 16.4667 69.8888 11.2903 63.8539 7.66591C59.2029 4.8897 53.999 3.01142 48.6303 2.25942C45.9365 1.8096 43.1963 1.80102 40.4699 1.87141Z" fill="#02164F"/>
<path d="M38.767 3.64319C47.3618 2.7195 56.2621 4.71967 63.5984 9.30377C71.0445 13.8776 76.9077 21.0026 79.8985 29.2197C81.1484 32.4697 81.8197 35.9155 82.17 39.3716C82.1391 40.6936 82.4052 42.0036 82.3159 43.3222C82.1957 44.342 82.1871 45.367 82.1751 46.392C82.0481 48.1295 81.806 49.8618 81.4094 51.5598C81.133 52.6964 80.6728 53.7763 80.3192 54.8889C77.0811 64.7627 69.7363 73.1875 60.4118 77.7681C56.4647 79.7546 52.1691 81.0233 47.7893 81.5745C46.936 81.7358 46.0587 81.6586 45.2054 81.8371C38.8529 82.1771 32.4163 80.9924 26.6166 78.3656C22.3879 76.4015 18.4459 73.7643 15.1667 70.4387C9.0477 64.4725 5.0216 56.4255 3.86098 47.9647C3.41974 44.5498 3.36995 41.0731 3.83694 37.6599C3.96399 35.8606 4.47048 34.1231 4.88253 32.3753C7.41837 23.0286 13.57 14.7205 21.775 9.57675C24.3641 7.90794 27.1557 6.55331 30.0779 5.57125C31.4136 5.02356 32.8318 4.74886 34.2241 4.39347C35.7161 4.02262 37.2442 3.83376 38.767 3.64319ZM34.5692 5.25019C28.8795 6.52927 23.4747 9.08572 18.9284 12.7461C13.9494 16.6933 9.96452 21.8954 7.47675 27.7449C6.86038 29.1029 6.44661 30.54 5.90751 31.9289C24.9014 31.9255 43.8954 31.9049 62.8859 31.7933C68.5035 31.7899 74.1212 31.7624 79.7406 31.7744C77.9361 25.458 74.3307 19.6927 69.6144 15.136C64.7933 10.5073 58.7688 7.12332 52.2755 5.50944C46.5016 4.04665 40.3878 4.00373 34.5692 5.25019ZM11.9853 34.4974C11.4531 34.779 10.8573 35.4485 11.2573 36.0649C11.5818 36.8701 12.7905 37.0212 13.297 36.3156C14.1022 35.5121 12.9759 34.0991 11.9853 34.4974ZM17.2716 35.1412C16.2397 35.6254 15.3968 36.5594 15.1049 37.6702C12.2806 37.7286 9.45289 37.6805 6.62689 37.7062C6.63204 38.1904 6.63375 38.6763 6.63204 39.1622C8.03645 39.1347 9.44258 39.1502 10.847 39.1519C10.9861 39.4043 10.9105 39.7133 10.9466 39.9897C9.58337 40.0086 8.01757 39.9313 6.96855 40.9632C6.44146 41.3478 6.51014 42.0637 6.52387 42.6406C6.56336 43.4372 7.14882 44.1892 7.94717 44.3352C9.19707 44.6648 10.7199 44.3489 11.7072 45.3687C11.4616 46.0761 10.8281 46.7319 10.0246 46.6203C9.46834 46.392 9.17303 45.7842 8.58929 45.6022C8.02272 45.4031 7.27072 45.3275 6.81574 45.7979C6.29724 46.1997 6.39511 46.9397 6.51701 47.5045C6.8724 48.2943 7.76003 48.7304 8.59444 48.787C9.02538 49.7142 9.719 50.4953 10.5431 51.0928C10.9569 50.6619 11.2985 50.1726 11.7003 49.7313C11.3998 49.4772 10.9964 49.242 10.9363 48.8179C11.3706 48.0677 12.4677 48.3303 13.012 47.6985C13.412 47.1835 13.831 46.5929 13.7983 45.9078C13.8086 44.9704 13.6833 43.8046 12.7596 43.3119C11.5492 42.6663 10.1276 43.1127 8.82965 42.9685C8.38155 42.8998 8.52405 42.3676 8.55152 42.0534C10.1053 41.765 11.7106 41.8543 13.285 41.8628C13.3794 40.9563 13.3159 40.0429 13.3228 39.133C13.8876 39.2085 14.516 39.0231 15.0396 39.2274C15.0534 42.232 15.019 45.2382 15.0911 48.2411C15.7367 48.2102 16.384 48.217 17.0312 48.2016C17.0106 45.1867 17.0535 42.1702 17.0244 39.1536C18.7378 39.1639 20.453 39.1433 22.1682 39.1656C22.1596 39.4935 22.1544 39.8249 22.1476 40.1545C21.2668 40.1614 20.3242 40.0172 19.5138 40.4498C18.8374 40.7348 18.2931 41.3581 18.2811 42.1169C17.9875 42.9101 18.585 43.6604 19.2237 44.0656C20.4496 44.8313 21.9638 44.7283 23.2996 45.1438C23.2996 45.4649 23.4764 45.9422 23.0695 46.0898C21.902 46.8006 20.5062 46.3199 19.3387 45.8683C19.0039 46.2804 18.6331 46.6633 18.3103 47.0839C19.8349 48.1655 21.9072 48.6823 23.6756 47.9114C24.9186 47.4032 25.6895 46.0177 25.5384 44.6974C25.4028 44.3266 25.0594 44.0776 24.7229 43.9008C23.37 43.1694 21.7733 43.3153 20.3174 42.941C20.2882 42.7247 20.259 42.5084 20.2349 42.2921C20.714 41.9573 21.3097 42.074 21.8574 42.0483C22.7622 42.0448 23.667 41.9865 24.5718 42.0294C24.6714 41.0714 24.6199 40.1065 24.5701 39.1484C25.329 39.2463 26.2904 38.86 26.869 39.5193C27.233 39.8747 27.5146 40.388 27.3841 40.91C27.2244 41.8302 26.3162 42.359 25.4972 42.6114C25.7856 43.9763 26.6475 45.2073 27.8579 45.9078C28.9327 46.4984 30.2736 46.3645 31.3398 45.8203C31.3226 46.622 31.3072 47.4238 31.3226 48.2256C32.0489 48.2033 32.7734 48.1999 33.4996 48.2273C33.4327 45.2142 33.5889 42.2062 33.5958 39.1965C35.7951 39.1536 37.9962 39.1845 40.1955 39.1622C40.1474 39.9674 40.1217 40.776 40.1337 41.583C38.7379 41.7718 37.3248 41.6379 35.9239 41.6637C35.165 41.6671 34.3375 42.3298 34.4731 43.1505C34.4576 44.0948 35.4466 45.0923 36.408 44.6734C37.0587 44.4811 37.3867 43.8699 37.8159 43.4046C38.5353 43.3874 39.2563 43.4132 39.9774 43.4063C39.9586 44.9859 39.9671 46.5671 39.9191 48.1484C40.6367 48.1638 41.3544 48.1741 42.072 48.1381C42.0858 45.149 42.2025 42.1633 42.1545 39.1725C42.4583 39.157 42.7622 39.145 43.0661 39.1278C43.049 38.6608 43.049 38.1921 43.0627 37.7251C36.8132 37.708 30.5603 37.744 24.3108 37.6822C24.0482 36.5405 23.121 35.6494 22.072 35.1927C20.5938 34.4596 18.7567 34.3909 17.2716 35.1412ZM56.4063 34.8202C55.8672 35.3747 55.1049 35.7954 54.31 35.6357C53.8087 35.591 53.431 35.2391 53.0361 34.9678C52.6189 34.9695 52.2223 35.2322 51.8652 35.4348C52.3596 36.7808 53.9873 37.6118 55.3573 37.1397C56.2535 36.8753 57.1377 36.3533 57.5858 35.5018C57.1772 35.3009 56.7806 35.0794 56.4063 34.8202ZM45.3702 37.6805C44.4688 37.9123 43.7666 38.7123 43.6911 39.6463C44.0276 39.8936 44.3383 40.1906 44.7161 40.376C45.3822 40.3537 45.6758 39.3974 46.4072 39.5605C46.936 39.4764 47.494 39.8455 47.5386 40.3966C47.3189 41.2894 46.4948 42.1908 45.4938 41.9985C45.4784 42.3899 45.4595 42.7814 45.4423 43.1745C46.1256 43.2775 47.1867 42.893 47.506 43.7394C47.5266 44.4176 47.7206 45.2485 47.1506 45.767C46.7523 46.2684 46.0003 46.2649 45.4869 45.9525C44.8826 45.6554 44.6165 44.9962 44.395 44.4038C43.9623 44.6768 43.5331 44.9532 43.1022 45.2262C43.2275 45.7035 43.3116 46.2186 43.6207 46.6186C44.9856 48.4454 48.179 48.5123 49.4959 46.5894C50.0968 45.9284 49.9165 45.0065 49.7723 44.2115C49.695 43.6656 49.2143 43.3273 48.8469 42.9685C49.5783 42.3367 49.6864 41.3031 49.7568 40.3983C49.6607 38.3346 47.2279 37.0023 45.3702 37.6805ZM50.2187 37.6942C50.2341 38.1818 50.2273 38.6711 50.2152 39.1605C50.6771 39.1587 51.1389 39.1467 51.6025 39.1381C51.5767 39.8541 51.5939 40.5683 51.6059 41.2842C51.0754 41.2894 50.5466 41.2894 50.0178 41.2877C49.9869 41.9401 49.9869 42.5925 49.9835 43.2466C50.5123 43.2535 51.0411 43.2415 51.5699 43.2106C51.6128 44.864 51.5939 46.519 51.5596 48.1724C52.2858 48.1861 53.0138 48.2067 53.7383 48.1484C53.6765 45.1404 53.7538 42.1324 53.6971 39.1261C54.219 39.1347 54.741 39.1399 55.2629 39.1416C55.2114 42.1307 55.2938 45.1198 55.2217 48.1072C55.893 48.1518 56.566 48.1484 57.239 48.1638C57.215 45.1404 57.2099 42.1152 57.227 39.0935C58.1198 39.2514 59.2375 38.8222 59.9225 39.5948C60.8823 40.558 59.9466 42.4225 58.6228 42.3951C58.7877 43.4767 58.9113 44.7798 59.9225 45.4305C61.193 46.3697 62.8721 46.0194 64.2817 45.6486C64.2577 46.4933 64.2354 47.3397 64.2336 48.1844C64.917 48.193 65.6037 48.2119 66.287 48.1672C66.2166 45.1627 66.3128 42.1547 66.2664 39.1484C69.3036 39.157 72.3425 39.1227 75.3797 39.1622C75.3299 39.8421 75.3368 40.5237 75.3436 41.2053C74.9625 41.3392 74.5882 41.4937 74.2225 41.6654C73.2662 40.9649 72.1777 40.3297 70.957 40.3211C69.8221 40.2352 68.622 40.7675 68.0554 41.7804C67.4356 42.644 67.4082 43.772 67.6022 44.7781C68.028 46.2272 69.1148 47.4032 70.3938 48.1655C70.6754 47.6402 70.9553 47.1148 71.2094 46.5757C70.5484 45.8786 69.556 45.252 69.5526 44.1806C69.4547 43.3891 70.0917 42.6818 70.8128 42.4603C71.278 42.3264 71.7553 42.6062 72.018 42.9805C71.745 43.3085 71.3124 43.4492 70.9587 43.6707C71.2471 44.2081 71.4841 44.7695 71.7931 45.2949C72.758 44.682 73.8516 44.3197 74.8509 43.7703C75.038 43.6673 75.2372 43.5935 75.4466 43.5471C75.4587 45.0751 75.5634 46.6032 75.5222 48.1312C76.2175 48.2205 76.9214 48.1861 77.6219 48.169C77.5859 45.1575 77.6305 42.1478 77.6013 39.1364C78.1662 39.1399 78.731 39.1553 79.2976 39.1467C79.2822 38.6643 79.2822 38.1801 79.3028 37.6977C69.6092 37.6753 59.9139 37.6805 50.2187 37.6942ZM5.96588 53.3282C8.18925 61.0319 12.9656 67.9304 19.2889 72.8441C22.5888 75.4332 26.3402 77.4265 30.2856 78.8343C32.145 79.4713 34.0593 79.9194 35.9805 80.3314C37.7163 80.6782 39.4864 80.771 41.2462 80.922C42.812 80.9186 44.3864 80.9993 45.9453 80.8053C49.2469 80.6267 52.4936 79.8473 55.6183 78.7879C61.2978 76.8032 66.4828 73.4501 70.6582 69.1219C74.7925 64.8176 77.9172 59.5433 79.6874 53.8416C77.2356 53.8124 74.7839 53.845 72.3322 53.8175C71.0737 53.7437 69.8135 53.7677 68.5533 53.7592C62.4292 53.7592 56.3068 53.6973 50.1826 53.6699C47.0339 53.7111 43.8885 53.5892 40.7415 53.5634C34.1022 53.445 27.463 53.5085 20.8238 53.4278C15.8706 53.3866 10.9174 53.4055 5.96588 53.3282Z" fill="#02164F"/>
<path d="M17.168 37.7234C17.3826 36.5182 18.6994 36.0066 19.7982 36.1147C20.8129 36.0615 21.9392 36.6332 22.1435 37.7028C20.485 37.7046 18.8265 37.7647 17.168 37.7234Z" fill="#02164F"/>
<path d="M29.226 39.1759C29.923 39.1725 30.6184 39.1691 31.3154 39.1656C31.2897 40.4722 31.4493 41.8113 31.0596 43.0818C30.7849 43.8888 29.9333 44.5137 29.068 44.3884C28.5512 44.3918 28.2387 43.9128 27.9795 43.5334C28.4156 43.0853 28.9787 42.7127 29.2139 42.1066C29.6191 41.1778 29.4285 40.1305 29.226 39.1759Z" fill="#02164F"/>
<path d="M62.0187 39.1296C62.7724 39.1416 63.5244 39.1433 64.2781 39.1347C64.206 40.5477 64.5013 42.0294 63.9708 43.3806C63.4883 44.6751 61.3165 44.6047 60.8271 43.36C61.4761 42.9479 62.0324 42.3676 62.1526 41.5744C62.2058 40.7623 62.2539 39.9193 62.0187 39.1296Z" fill="#02164F"/>
<path d="M66.5694 87.5801C68.2365 87.3604 70.0204 87.4342 71.5312 88.248C73.109 89.0601 74.2456 90.607 74.6577 92.3222C75.0714 94.0425 75.0629 95.8778 74.5873 97.5861C74.0928 99.37 72.7708 100.915 71.0488 101.612C69.7783 102.155 68.3636 102.198 67.0055 102.088C65.1101 101.908 63.2764 100.867 62.2909 99.2137C61.1063 97.2788 61.0273 94.8717 61.4102 92.6913C61.8566 90.1434 63.9546 87.9029 66.5694 87.5801ZM66.9025 90.1211C65.6749 90.4611 64.7341 91.5255 64.4285 92.748C64.0662 94.1816 64.0593 95.7353 64.5383 97.1432C65.0208 98.5304 66.36 99.6292 67.8588 99.6378C69.1293 99.7546 70.4324 99.1571 71.1501 98.0995C71.8643 97.0453 72.0102 95.7182 71.9845 94.4751C71.9381 93.2562 71.7029 91.929 70.7998 91.0362C69.8281 89.9838 68.2365 89.7657 66.9025 90.1211Z" fill="#02164F"/>
<path d="M4.30181 87.7519C5.24438 87.7416 6.18524 87.7433 7.12781 87.7519C7.13639 92.4562 7.12781 97.1621 7.13296 101.866C6.18695 101.872 5.24266 101.87 4.29838 101.868C4.30181 97.1621 4.29322 92.4579 4.30181 87.7519Z" fill="#02164F"/>
<path d="M28.336 87.7502C29.2511 87.7502 30.168 87.7313 31.0831 87.7622C31.0848 92.4613 31.0779 97.1604 31.0865 101.858C30.2418 101.875 29.3971 101.872 28.5524 101.87C28.5472 101.41 28.5455 100.95 28.5403 100.491C27.7574 101.465 26.5745 102.194 25.2903 102.134C23.7983 102.181 22.4265 101.209 21.7312 99.9298C21.0084 98.6129 20.9466 97.0488 21.0942 95.586C21.2247 94.3379 21.7501 93.0828 22.7579 92.2948C23.7125 91.4844 25.0482 91.2852 26.25 91.5067C27.069 91.675 27.7368 92.2106 28.3446 92.7549C28.324 91.0861 28.336 89.4173 28.336 87.7502ZM25.3435 93.67C24.6825 93.9498 24.1846 94.5713 24.0181 95.2667C23.8017 96.1303 23.8395 97.0402 23.97 97.9158C24.0885 98.697 24.5555 99.4576 25.292 99.7907C26.0079 100.077 26.911 99.9881 27.4673 99.4164C28.2622 98.697 28.4047 97.5484 28.3721 96.5355C28.3275 95.6805 28.1987 94.7327 27.5566 94.1061C27.0003 93.5206 26.0818 93.3936 25.3435 93.67Z" fill="#02164F"/>
<path d="M33.5868 87.745C34.4967 87.7467 35.4067 87.745 36.3149 87.7485C36.3201 88.5777 36.3201 89.4053 36.3149 90.2345C35.4067 90.2379 34.4968 90.2345 33.5885 90.238C33.5593 89.407 33.5593 88.5743 33.5868 87.745Z" fill="#02164F"/>
<path d="M76.9708 87.7536C77.8825 87.7433 78.7959 87.7433 79.7093 87.7536C79.7179 88.5777 79.7179 89.4035 79.7076 90.2293C78.7959 90.2379 77.8825 90.2379 76.9691 90.2293C76.9605 89.4035 76.9605 88.5777 76.9708 87.7536Z" fill="#02164F"/>
<path d="M82.3298 87.7639C83.2449 87.733 84.16 87.745 85.0751 87.7519C85.082 92.4579 85.0803 97.1622 85.0769 101.866C84.16 101.868 83.2432 101.877 82.3281 101.858C82.3367 97.1604 82.3316 92.4613 82.3298 87.7639Z" fill="#02164F"/>
<path d="M14.4501 91.5564C15.712 91.2646 17.192 91.4122 18.1723 92.3325C18.9672 93.1188 19.0342 94.2983 19.0599 95.3525C19.0702 97.5209 19.0531 99.6893 19.0668 101.859C18.15 101.877 17.2332 101.87 16.3146 101.866C16.2666 99.5245 16.4314 97.1707 16.203 94.8374C16.0743 93.5566 14.426 93.1737 13.4852 93.8519C12.6491 94.3069 12.4928 95.3267 12.4636 96.1903C12.4362 98.0806 12.4671 99.9726 12.4482 101.865C11.5331 101.872 10.6163 101.875 9.70117 101.861C9.71319 98.4446 9.69774 95.028 9.70804 91.6114C10.5613 91.6062 11.4146 91.6114 12.2662 91.6062C12.2817 92.0561 12.2817 92.5076 12.2834 92.9591C12.91 92.3668 13.5813 91.7556 14.4501 91.5564Z" fill="#02164F"/>
<path d="M40.3841 91.8913C41.6066 91.3264 42.9938 91.4003 44.3038 91.4792C45.4369 91.5737 46.7229 92.0956 47.1281 93.2476C47.8286 96.0719 46.6576 99.1451 47.9058 101.866C46.977 101.861 46.0464 101.897 45.1176 101.841C45.03 101.511 44.9322 101.185 44.8343 100.86C44.1029 101.47 43.2582 102.018 42.2847 102.107C41.2563 102.203 40.1232 102.105 39.3042 101.413C38.0492 100.419 37.8861 98.3468 38.9522 97.1621C39.5978 96.4342 40.585 96.1698 41.5001 95.9638C42.5474 95.7526 43.5981 95.55 44.6248 95.2444C44.6712 94.7345 44.6626 94.1078 44.1836 93.797C43.6205 93.4622 42.9183 93.5189 42.2899 93.567C41.6306 93.6408 41.2735 94.2623 41.0159 94.8014C40.185 94.6761 39.3609 94.5113 38.5299 94.3791C38.8269 93.3695 39.4038 92.3669 40.3841 91.8913ZM41.7748 97.7665C41.0846 98.0103 40.7653 98.9116 41.2048 99.5177C41.792 100.5 43.2548 100.335 44.0085 99.6396C44.8086 99.0318 44.618 97.9227 44.6506 97.0454C43.6926 97.284 42.7054 97.43 41.7748 97.7665Z" fill="#02164F"/>
<path d="M54.491 91.5719C55.7821 91.2474 57.3153 91.4036 58.3077 92.3685C59.0597 93.1566 59.1387 94.3138 59.1524 95.3473C59.1507 97.5192 59.1575 99.6928 59.1472 101.865C58.2321 101.872 57.3153 101.875 56.4002 101.861C56.3521 99.5005 56.5273 97.1278 56.2852 94.7773C56.1083 93.4553 54.3297 93.172 53.4334 93.9567C52.6557 94.494 52.587 95.5207 52.551 96.3809C52.5303 98.206 52.5492 100.033 52.5441 101.859C51.629 101.88 50.7122 101.868 49.7971 101.866C49.8039 98.4463 49.773 95.0263 49.8125 91.6062C50.6641 91.6097 51.5157 91.6062 52.3672 91.6097C52.369 92.0458 52.369 92.4836 52.3879 92.9214C53.0128 92.3668 53.6583 91.7848 54.491 91.5719Z" fill="#02164F"/>
<path d="M33.5733 91.6097C34.4815 91.6062 35.3915 91.6097 36.3014 91.6062C36.3392 95.0263 36.3117 98.4463 36.3151 101.866C35.3983 101.873 34.4815 101.875 33.5664 101.858C33.5767 98.4429 33.5647 95.0263 33.5733 91.6097Z" fill="#02164F"/>
<path d="M76.9744 91.6029C77.8844 91.6114 78.7943 91.6132 79.7043 91.6011C79.7266 95.0229 79.7128 98.4446 79.7111 101.866C78.796 101.872 77.8826 101.872 76.9675 101.866C76.9641 98.4446 76.9538 95.0229 76.9744 91.6029Z" fill="#02164F"/>
<path d="M34.568 5.25025C40.3865 4.00379 46.5004 4.04672 52.2743 5.5095C58.7675 7.12338 64.7921 10.5074 69.6131 15.1361C74.3294 19.6927 77.9349 25.458 79.7393 31.7745C74.1199 31.7624 68.5023 31.7899 62.8846 31.7933C43.8941 31.9049 24.9002 31.9255 5.90625 31.929C6.44535 30.54 6.85912 29.103 7.47549 27.7449C9.96326 21.8955 13.9482 16.6933 18.9271 12.7462C23.4734 9.08578 28.8782 6.52934 34.568 5.25025Z" fill="#F37022"/>
<path d="M5.96484 53.3283C10.9163 53.4055 15.8696 53.3866 20.8228 53.4279C27.462 53.5085 34.1012 53.445 40.7404 53.5635C43.8875 53.5892 47.0328 53.7111 50.1816 53.6699C56.3057 53.6974 62.4281 53.7592 68.5523 53.7592C69.8125 53.7678 71.0727 53.7438 72.3312 53.8176C74.7829 53.8451 77.2346 53.8124 79.6863 53.8416C77.9162 59.5434 74.7915 64.8177 70.6572 69.1219C66.4817 73.4502 61.2967 76.8033 55.6173 78.788C52.4925 79.8473 49.2459 80.6268 45.9443 80.8054C44.3854 80.9994 42.811 80.9187 41.2452 80.9221C39.4854 80.771 37.7153 80.6783 35.9795 80.3315C34.0583 79.9194 32.144 79.4713 30.2846 78.8344C26.3392 77.4265 22.5878 75.4332 19.2879 72.8441C12.9646 67.9304 8.18821 61.032 5.96484 53.3283Z" fill="#F37022"/>
</svg>
