<svg width="140" height="44" viewBox="0 0 140 44" fill="none" xmlns="http://www.w3.org/2000/svg">
<path d="M75.1211 16.937C74.1179 16.3538 73.8379 15.7939 72.8581 15.234L66.1392 29.185L57.834 12.0145H51.7217V43.7892H57.9273V25.2656L66.3959 40.8963L74.3045 25.2656V43.7892H80.5102V19.9465C78.6671 18.9434 76.8941 17.9402 75.1211 16.937Z" fill="#040000"/>
<path d="M27.0615 43.766V11.9914H47.988V17.5438H33.2671V24.9858H45.795V30.5149H33.2671V38.2369H47.988V43.766H27.0615Z" fill="#040000"/>
<path d="M16.4006 43.7659L6.20562 29.8149V43.7659H0V11.9913H6.20562V23.5393L17.917 9.37839H25.4757L11.758 26.3389L24.4959 43.7659H16.4006Z" fill="#040000"/>
<path d="M98.9166 21.6496C102.229 22.8627 106.312 23.6326 109.648 23.9825L102.043 12.0145H96.5137V20.7397C97.3069 21.043 98.1001 21.3463 98.9166 21.6496Z" fill="#040000"/>
<path d="M120.845 23.3761V11.9914H114.64V24.146C116.809 24.0527 118.886 23.796 120.845 23.3761Z" fill="#040000"/>
<path d="M96.5137 27.2954V43.7659H102.719V29.0451C100.643 28.6018 98.5667 28.0186 96.5137 27.2954Z" fill="#040000"/>
<path d="M112.915 30.1649C111.025 30.1649 107.689 30.0483 105.776 29.815L115.295 43.7893H120.824V29.5117C118.188 29.9316 115.551 30.1649 112.915 30.1649Z" fill="#040000"/>
<path d="M85.5484 15.3041C83.7754 14.3476 80.6259 12.6445 78.9462 11.688C68.4247 5.66904 58.463 0 42.2024 0C38.633 0 34.9703 0.419929 32.4741 0.699882L26.2451 8.42191C26.2451 8.42191 30.2578 6.57889 42.2024 6.57889C56.7366 6.57889 65.5318 11.5947 75.7034 17.4037C78.4097 18.9435 82.6089 21.2297 85.5484 22.7695V15.3041Z" fill="#E2231A"/>
<path d="M139.557 15.2808C132.488 19.5034 117.767 28.2986 98.544 21.2764C96.4443 20.5065 93.0616 18.9901 91.1719 18.1269V25.2657C92.3617 25.7557 95.0212 26.9688 96.3043 27.4354C102.23 29.605 107.806 30.4449 112.938 30.4449C119.237 30.4449 124.86 29.1617 129.619 27.4587L140 15.0241C139.837 15.1175 139.697 15.1874 139.557 15.2808Z" fill="#E2231A"/>
<path d="M91.4517 11.9914H85.2461V43.766H91.4517V11.9914Z" fill="#040000"/>
<path d="M123.972 11.8281C124.975 11.8281 125.791 12.6446 125.791 13.6478C125.791 14.6509 124.975 15.4675 123.972 15.4675C122.968 15.4675 122.152 14.6509 122.152 13.6478C122.129 12.6446 122.945 11.8281 123.972 11.8281ZM123.972 15.0708C124.811 15.0708 125.371 14.441 125.371 13.6478C125.371 12.8546 124.811 12.2247 123.972 12.2247C123.132 12.2247 122.572 12.8546 122.572 13.6478C122.572 14.441 123.132 15.0708 123.972 15.0708ZM123.248 12.6213H124.042C124.555 12.6213 124.835 12.7846 124.835 13.2278C124.835 13.6011 124.601 13.7411 124.298 13.7877L124.835 14.6976H124.391L123.878 13.7877H123.668V14.6976H123.272V12.6213H123.248ZM123.995 13.5078C124.205 13.5078 124.415 13.4844 124.415 13.2045C124.415 12.9712 124.182 12.9245 124.018 12.9245H123.668V13.5078H123.995Z" fill="#040000"/>
</svg>
