<svg width="85" height="84" viewBox="0 0 85 84" fill="none" xmlns="http://www.w3.org/2000/svg">
<path d="M41.3618 0.0191154C25.5769 0.488647 11.0838 9.2761 3.89364 23.9232C-0.938695 33.7672 -1.32658 49.1153 3.02994 58.6068C8.87971 71.3518 21.6038 81.2309 34.9868 83.4161C67.156 88.6688 93.5393 57.5494 82.4081 27.5027C78.4585 16.8415 67.4487 5.82198 57.3608 2.44656C52.0418 0.666832 46.6234 -0.137399 41.3618 0.0191154ZM41.0327 4.79171C43.4703 4.88247 43.8812 5.8219 41.2384 7.30144C36.2564 10.0905 29.5589 16.8771 26.2265 22.5655C24.3191 25.8214 22.0817 31.5429 21.2499 35.2376L19.7281 41.9439L17.6306 38.6525C14.6736 34.092 12.2395 23.5914 13.2298 19.6444C14.3567 15.153 25.9479 7.52334 34.6578 5.57343C37.3462 4.97158 39.5702 4.73726 41.0327 4.79171ZM63.818 12.8146C65.6515 12.8954 67.087 13.9528 69.576 16.5998C71.813 18.9789 75.071 24.0026 76.8146 27.7907C78.6156 31.7035 79.8055 36.4312 79.5702 38.7347L79.1589 42.8079L74.0179 36.6364C67.6768 29.0228 59.3194 23.596 50.7391 21.5369C40.9712 19.1928 44.1466 16.7336 61.8027 13.0203C62.5586 12.8614 63.2068 12.7877 63.818 12.8146ZM42.1432 23.3884C51.3016 23.0786 61.3914 32.4867 61.3914 41.985C61.3914 47.9576 57.1629 54.7653 51.3971 58.072C45.13 61.6663 39.7977 61.8202 33.753 58.6068C17.0601 49.7331 21.3127 27.0815 40.3336 23.5941C40.9326 23.4842 41.5326 23.409 42.1432 23.3884ZM35.357 29.5187L34.8635 31.3701H37.8658L32.8893 47.7039L32.1124 48.6076L30.593 48.8674L29.1862 51.851L52.8778 51.9005L57.1551 41.5736L54.2761 41.6148L53.3302 44.6182C53.3302 44.6182 52.3353 47.4787 51.4033 48.0953C50.1954 48.8943 46.0627 48.6468 46.0627 48.6468L41.6392 48.5706L46.4206 31.6581L49.6286 31.617L50.1222 29.5598L35.357 29.5187ZM4.79847 41.121L11.5847 48.5268C18.6974 56.312 27.2818 61.5528 35.4804 63.0914C38.1549 63.5934 40.3336 64.4603 40.3336 65.0252C40.3336 65.5901 37.9945 66.9976 35.1102 68.152C25.7291 71.9069 20.3421 72.1617 16.3967 69.0572C11.7705 65.4169 4.79847 51.3147 4.79847 45.6056V41.121ZM64.8051 43.8776C66.5434 43.6772 70.6242 52.2856 71.509 59.7589C72.2078 65.6607 72.0616 65.9898 66.9437 70.0446C64.0266 72.3559 59.6538 75.0978 57.2374 76.0927C54.821 77.0876 50.2687 78.2891 47.1198 78.8081L41.4029 79.7544L50.5334 70.7441C59.3905 61.9942 64.0236 53.6023 64.0236 46.3462C64.0236 44.6973 64.3183 43.9337 64.8051 43.8776Z" fill="#016FB6"/>
</svg>
